<svg width="120" height="70" viewBox="0 0 120 70" fill="none" xmlns="http://www.w3.org/2000/svg">
<path d="M102.05 10.13C112.89 16.39 119.64 25.03 119.69 34.56C119.79 53.62 93.11 69.13 60.21 69.13C43.76 69.13 28.82 65.25 17.97 58.99C7.12 52.73 0.39 44.09 0.33 34.56C0.24 15.5 26.91 0 59.82 0C76.27 0 91.21 3.87 102.05 10.13Z" fill="#32D9AF"/>
<path d="M35.6777 34.3873V36.72H21.0523V34.6789L28.3727 26.5298C29.273 25.5272 29.9687 24.678 30.4598 23.9823C30.9612 23.2763 31.309 22.6471 31.5034 22.0946C31.708 21.5319 31.8103 20.959 31.8103 20.3758C31.8103 19.6391 31.6569 18.9741 31.3499 18.3807C31.0532 17.7771 30.6133 17.2962 30.0301 16.9381C29.447 16.58 28.741 16.401 27.9123 16.401C26.9199 16.401 26.0911 16.5954 25.4261 16.9842C24.7713 17.3627 24.2802 17.8947 23.9528 18.5802C23.6254 19.2657 23.4617 20.0535 23.4617 20.9436H20.6226C20.6226 19.6852 20.8989 18.5342 21.4513 17.4906C22.0038 16.447 22.8223 15.6183 23.9068 15.0044C24.9913 14.3804 26.3265 14.0683 27.9123 14.0683C29.3242 14.0683 30.5315 14.319 31.5341 14.8203C32.5368 15.3114 33.3041 16.0071 33.8361 16.9074C34.3784 17.7975 34.6495 18.8411 34.6495 20.0382C34.6495 20.693 34.5369 21.358 34.3118 22.0332C34.097 22.6983 33.7952 23.3633 33.4064 24.0283C33.0278 24.6933 32.5828 25.3481 32.0712 25.9927C31.5699 26.6372 31.0328 27.2716 30.4598 27.8957L24.4746 34.3873H35.6777ZM52.7432 23.7674V27.1744C52.7432 29.0057 52.5795 30.5506 52.2521 31.8091C51.9247 33.0675 51.4541 34.0804 50.8402 34.8477C50.2264 35.615 49.4846 36.1726 48.615 36.5205C47.7555 36.8581 46.7836 37.0269 45.6991 37.0269C44.8397 37.0269 44.0468 36.9195 43.3204 36.7047C42.5939 36.4898 41.9391 36.1471 41.356 35.6764C40.783 35.1956 40.2919 34.5715 39.8827 33.8041C39.4734 33.0368 39.1614 32.1058 38.9465 31.011C38.7317 29.9163 38.6243 28.6374 38.6243 27.1744V23.7674C38.6243 21.936 38.788 20.4014 39.1154 19.1634C39.453 17.9254 39.9287 16.933 40.5426 16.1861C41.1565 15.429 41.8931 14.8868 42.7525 14.5594C43.6222 14.232 44.5941 14.0683 45.6684 14.0683C46.538 14.0683 47.3361 14.1757 48.0625 14.3906C48.7991 14.5952 49.4539 14.9277 50.0268 15.3881C50.5998 15.8383 51.0858 16.4419 51.4848 17.199C51.894 17.9459 52.2061 18.8616 52.4209 19.9461C52.6358 21.0306 52.7432 22.3044 52.7432 23.7674ZM49.8887 27.6348V23.2917C49.8887 22.289 49.8273 21.4091 49.7046 20.652C49.592 19.8847 49.4232 19.2299 49.1981 18.6877C48.973 18.1454 48.6866 17.7055 48.3387 17.3678C48.0011 17.0302 47.6072 16.7847 47.157 16.6312C46.7171 16.4675 46.2209 16.3857 45.6684 16.3857C44.9931 16.3857 44.3946 16.5135 43.8728 16.7693C43.351 17.0149 42.9111 17.4088 42.553 17.951C42.2052 18.4933 41.9391 19.2043 41.755 20.0842C41.5708 20.9641 41.4787 22.0332 41.4787 23.2917V27.6348C41.4787 28.6374 41.535 29.5224 41.6476 30.2897C41.7703 31.0571 41.9494 31.7221 42.1847 32.2848C42.42 32.8373 42.7065 33.2926 43.0441 33.6507C43.3817 34.0088 43.7705 34.2748 44.2105 34.4487C44.6606 34.6124 45.1568 34.6942 45.6991 34.6942C46.3948 34.6942 47.0036 34.5612 47.5253 34.2952C48.0471 34.0292 48.482 33.6149 48.8298 33.0521C49.1879 32.4792 49.4539 31.7477 49.6278 30.8576C49.8018 29.9572 49.8887 28.883 49.8887 27.6348ZM65.7265 14.2525V36.72H62.8874V17.7975L57.1631 19.8847V17.3218L65.2814 14.2525H65.7265ZM88.1633 30.6734C88.1633 32.0341 87.8462 33.1903 87.2119 34.1418C86.5878 35.083 85.7386 35.7992 84.6643 36.2903C83.6003 36.7814 82.3981 37.0269 81.0578 37.0269C79.7176 37.0269 78.5103 36.7814 77.436 36.2903C76.3618 35.7992 75.5126 35.083 74.8885 34.1418C74.2644 33.1903 73.9523 32.0341 73.9523 30.6734C73.9523 29.7833 74.1211 28.9699 74.4588 28.2333C74.8066 27.4864 75.2926 26.8367 75.9167 26.2843C76.551 25.7318 77.2979 25.3072 78.1573 25.0105C79.027 24.7036 79.9836 24.5501 81.0271 24.5501C82.3981 24.5501 83.6207 24.8161 84.695 25.3481C85.7693 25.8699 86.6133 26.5912 87.2272 27.512C87.8513 28.4328 88.1633 29.4866 88.1633 30.6734ZM85.3089 30.612C85.3089 29.7833 85.1298 29.0518 84.7717 28.4174C84.4136 27.7729 83.9123 27.2716 83.2678 26.9135C82.6232 26.5554 81.8763 26.3763 81.0271 26.3763C80.1575 26.3763 79.4055 26.5554 78.7712 26.9135C78.1471 27.2716 77.6611 27.7729 77.3132 28.4174C76.9654 29.0518 76.7915 29.7833 76.7915 30.612C76.7915 31.4714 76.9603 32.2081 77.2979 32.8219C77.6458 33.4256 78.1369 33.8911 78.7712 34.2185C79.4157 34.5357 80.178 34.6942 81.0578 34.6942C81.9377 34.6942 82.6948 34.5357 83.3291 34.2185C83.9635 33.8911 84.4495 33.4256 84.7871 32.8219C85.1349 32.2081 85.3089 31.4714 85.3089 30.612ZM87.6416 20.1916C87.6416 21.2761 87.3551 22.2532 86.7821 23.1228C86.2092 23.9925 85.4265 24.678 84.4341 25.1793C83.4417 25.6806 82.3163 25.9313 81.0578 25.9313C79.7789 25.9313 78.6382 25.6806 77.6355 25.1793C76.6431 24.678 75.8655 23.9925 75.3028 23.1228C74.7401 22.2532 74.4588 21.2761 74.4588 20.1916C74.4588 18.8923 74.7401 17.7873 75.3028 16.8767C75.8758 15.9662 76.6585 15.2705 77.6509 14.7896C78.6433 14.3087 79.7738 14.0683 81.0425 14.0683C82.3214 14.0683 83.457 14.3087 84.4495 14.7896C85.4419 15.2705 86.2194 15.9662 86.7821 16.8767C87.3551 17.7873 87.6416 18.8923 87.6416 20.1916ZM84.8024 20.2377C84.8024 19.4908 84.6438 18.8309 84.3267 18.2579C84.0095 17.685 83.5696 17.2348 83.0069 16.9074C82.4442 16.5698 81.7894 16.401 81.0425 16.401C80.2956 16.401 79.6408 16.5596 79.0781 16.8767C78.5256 17.1837 78.0908 17.6236 77.7736 18.1966C77.4667 18.7695 77.3132 19.4499 77.3132 20.2377C77.3132 21.005 77.4667 21.6751 77.7736 22.2481C78.0908 22.821 78.5307 23.2661 79.0935 23.5832C79.6562 23.9004 80.311 24.059 81.0578 24.059C81.8047 24.059 82.4544 23.9004 83.0069 23.5832C83.5696 23.2661 84.0095 22.821 84.3267 22.2481C84.6438 21.6751 84.8024 21.005 84.8024 20.2377Z" fill="white"/>
</svg>
