<svg xmlns="http://www.w3.org/2000/svg" viewBox="0 0 130.32 148.96"><defs><style>.cls-1{fill:#d7b04d;}.cls-2{fill:#252525;}.cls-3{fill:none;}.cls-4{font-size:18.55px;fill:#08907a;font-family:GalanoGrotesque-Medium, Galano Grotesque;font-weight:500;}.cls-5{letter-spacing:-0.04em;}</style></defs><title>coin 98</title><g id="Capa_2" data-name="Capa 2"><g id="Capa_1-2" data-name="Capa 1"><rect class="cls-1" x="6.03" width="118.23" height="118.23" rx="22.99"/><path class="cls-2" d="M40.23,21.15A22.81,22.81,0,1,0,63,44,22.8,22.8,0,0,0,40.23,21.15Zm0,36.08A13.28,13.28,0,1,1,53.51,44,13.27,13.27,0,0,1,40.23,57.23Z"/><path class="cls-2" d="M59.54,73.93H51.46a10,10,0,0,1,.06,1.1,11.22,11.22,0,0,1-22.44,0,10,10,0,0,1,.06-1.1H21.06c0,.37,0,.73,0,1.1a19.27,19.27,0,0,0,38.54,0C59.57,74.66,59.56,74.3,59.54,73.93Z"/><path class="cls-2" d="M88.38,48.07a22.81,22.81,0,1,0,22.8,22.81A22.81,22.81,0,0,0,88.38,48.07Zm0,36.08a13.28,13.28,0,1,1,13.27-13.27A13.28,13.28,0,0,1,88.38,84.15Z"/><path class="cls-2" d="M87.82,20.86c-11.26,0-20.4,8.69-20.4,19.4A18.59,18.59,0,0,0,70.83,51a22.65,22.65,0,0,1,6.52-5.4A10.9,10.9,0,0,1,76,40.26C76,34,81.26,29,87.82,29S99.7,34,99.7,40.26a10.83,10.83,0,0,1-1.16,4.88,23,23,0,0,1,6.76,5.14,18.59,18.59,0,0,0,2.92-10C108.22,29.55,99.09,20.86,87.82,20.86Z"/><polyline class="cls-3" points="60.36 73.93 59.54 73.93 51.47 73.93 29.14 73.93 21.06 73.93 19.87 73.93"/><text class="cls-4" transform="translate(0 145.12)">Coin 98 <tspan class="cls-5" x="73.23" y="0">W</tspan><tspan x="90.29" y="0">allet</tspan></text></g></g></svg>