<svg xmlns="http://www.w3.org/2000/svg" viewBox="0 0 131.1 148.96"><defs><style>.cls-1{fill:#fff;}.cls-2{fill:#798ce5;}.cls-3{font-size:18.55px;fill:#08907a;font-family:GalanoGrotesque-Medium, Galano Grotesque;font-weight:500;}.cls-4{letter-spacing:-0.01em;}.cls-5{letter-spacing:-0.04em;}</style></defs><title>guarda wallet</title><g id="Capa_2" data-name="Capa 2"><g id="Capa_1-2" data-name="Capa 1"><rect class="cls-1" x="6.43" width="118.23" height="118.23" rx="22.99"/><path class="cls-2" d="M107.86,21.53l-.33-2.64L66.41,9.3,65.55,9l-.87.27h0L23.56,18.89l-.33,2.64a110.28,110.28,0,0,0,2.13,33.79A86.5,86.5,0,0,0,37,83.91,69.63,69.63,0,0,0,63.61,108l.19.1,1.83.78,1.88-.88h0A69.56,69.56,0,0,0,94.11,83.91a86.08,86.08,0,0,0,11.62-28.59A109.55,109.55,0,0,0,107.86,21.53ZM98.23,53.91C93.44,75.42,82.45,91.05,65.55,100.4c-16.91-9.35-27.89-25-32.68-46.49a107.24,107.24,0,0,1-2.28-28.82l35-8.15,35,8.15A106.7,106.7,0,0,1,98.23,53.91Z"/><path class="cls-2" d="M65.77,30.59l-23.56,6S40.48,77.86,65.77,84.16c0,0,24.5-5.67,23.08-47.27Z"/><text class="cls-3" transform="translate(0 145.12)">Gua<tspan class="cls-4" x="38" y="0">r</tspan><tspan x="45.54" y="0">da </tspan><tspan class="cls-5" x="74.01" y="0">W</tspan><tspan x="91.07" y="0">allet</tspan></text></g></g></svg>