<svg xmlns="http://www.w3.org/2000/svg" viewBox="0 0 118.23 148.96"><defs><style>.cls-1{fill:#fff;}.cls-2{font-size:18.55px;fill:#08907a;font-family:GalanoGrotesque-Medium, Galano Grotesque;font-weight:500;}.cls-3{letter-spacing:0em;}</style></defs><title>mathwallet</title><g id="Capa_2" data-name="Capa 2"><g id="Capa_1-2" data-name="Capa 1"><rect class="cls-1" width="118.23" height="118.23" rx="22.99"/><path d="M44.67,41.91a5.08,5.08,0,0,1-5,5.21A5.16,5.16,0,0,1,34.28,42a5.28,5.28,0,0,1,5.29-5.25A5.16,5.16,0,0,1,44.67,41.91Z"/><path d="M76.7,47.12a5.07,5.07,0,0,1-5.26-5,5.16,5.16,0,0,1,5.06-5.42A5.28,5.28,0,0,1,81.82,42,5.16,5.16,0,0,1,76.7,47.12Z"/><path d="M43.59,51.18A5.06,5.06,0,0,1,48.68,46a5.18,5.18,0,0,1,5.3,5.2,5.33,5.33,0,0,1-5.14,5.19A5.19,5.19,0,0,1,43.59,51.18Z"/><path d="M72.51,51.18a5.19,5.19,0,0,1-5.25,5.25,5.32,5.32,0,0,1-5.14-5.19,5.18,5.18,0,0,1,5.3-5.2A5.06,5.06,0,0,1,72.51,51.18Z"/><path d="M30.14,46a5.2,5.2,0,0,1,5.35,5.16,5.35,5.35,0,0,1-5.12,5.23A5.29,5.29,0,0,1,25,51.21,5.18,5.18,0,0,1,30.14,46Z"/><path d="M85.81,46a5.18,5.18,0,0,1,5.26,5.25,5.23,5.23,0,0,1-10.46-.16A5.2,5.2,0,0,1,85.81,46Z"/><path d="M44.67,60.35a5.17,5.17,0,0,1-5.19,5.3,5.25,5.25,0,0,1-5.2-5.11,5.33,5.33,0,0,1,5.24-5.33A5.2,5.2,0,0,1,44.67,60.35Z"/><path d="M71.43,60.42a5.2,5.2,0,0,1,5.08-5.21,5.32,5.32,0,0,1,5.31,5.26,5.24,5.24,0,0,1-5.35,5.17A5.13,5.13,0,0,1,71.43,60.42Z"/><path d="M58.11,64.36a3.92,3.92,0,1,1,3.81-3.91A4,4,0,0,1,58.11,64.36Z"/><path d="M34.18,69.62a3.93,3.93,0,1,1-4.12-3.79A3.93,3.93,0,0,1,34.18,69.62Z"/><path d="M89.78,69.75A3.93,3.93,0,1,1,86,65.83,3.92,3.92,0,0,1,89.78,69.75Z"/><path d="M20.94,56.52a3.92,3.92,0,0,1,.13,7.84,3.92,3.92,0,0,1-.13-7.84Z"/><path d="M95,56.52a3.92,3.92,0,1,1-3.79,4.12A3.93,3.93,0,0,1,95,56.52Z"/><path d="M48.75,65.83a3.87,3.87,0,1,1,0,7.73,3.87,3.87,0,1,1,0-7.73Z"/><path d="M71.21,69.77a3.78,3.78,0,0,1-3.83,3.78,3.86,3.86,0,1,1,.14-7.71A3.79,3.79,0,0,1,71.21,69.77Z"/><path d="M92.56,79.17c0-1.74.91-2.7,2.43-2.76a2.32,2.32,0,0,1,2.62,2.42,2.35,2.35,0,0,1-2.4,2.65A2.4,2.4,0,0,1,92.56,79.17Z"/><path d="M18.46,78.94a2.4,2.4,0,0,1,2.59-2.54,2.55,2.55,0,0,1-.1,5.09A2.4,2.4,0,0,1,18.46,78.94Z"/><path d="M58,76.35c1.57.21,2.57,1.08,2.53,2.64a2.55,2.55,0,0,1-5.1-.09C55.47,77.33,56.51,76.53,58,76.35Z"/><path d="M11.84,72.23A2.42,2.42,0,0,1,9.2,69.8a2.35,2.35,0,0,1,2.43-2.62,2.32,2.32,0,0,1,2.64,2.41A2.38,2.38,0,0,1,11.84,72.23Z"/><path d="M104.37,72.23a2.39,2.39,0,0,1-2.55-2.58,2.32,2.32,0,0,1,2.58-2.47,2.35,2.35,0,0,1,2.5,2.56A2.39,2.39,0,0,1,104.37,72.23Z"/><text class="cls-2" transform="translate(5.8 145.12)">Math <tspan class="cls-3" x="52.25" y="0">w</tspan><tspan x="66.61" y="0">allet</tspan></text></g></g></svg>