<svg xmlns="http://www.w3.org/2000/svg" viewBox="0 0 1281.16 606.19"><defs><style>.cls-1{fill:#fdbf09;}.cls-2{font-size:24.52px;font-family:GalanoGrotesque-Bold, Galano Grotesque;font-weight:700;}.cls-3{letter-spacing:-0.07em;}.cls-4{letter-spacing:-0.01em;}.cls-5{fill:#37ccaf;}.cls-6{fill:none;}.cls-7{fill:#008489;}.cls-8{fill:#e8e8e8;}.cls-9{fill:#32d9af;}.cls-10{font-size:14px;}.cls-10,.cls-30,.cls-37,.cls-47,.cls-52{fill:#081c3e;font-family:GalanoGrotesque-Medium, Galano Grotesque;font-weight:500;}.cls-11{letter-spacing:-0.01em;}.cls-12{letter-spacing:0.01em;}.cls-13{letter-spacing:-0.01em;}.cls-14{letter-spacing:0em;}.cls-15{letter-spacing:0em;}.cls-16{letter-spacing:0em;}.cls-17{font-size:31.43px;}.cls-17,.cls-21,.cls-24,.cls-28{fill:#fff;font-family:GalanoGrotesque-ExtraBold, Galano Grotesque;font-weight:800;}.cls-18{letter-spacing:0em;}.cls-19{letter-spacing:0.01em;}.cls-20{fill:#26b59d;}.cls-21{font-size:34.28px;}.cls-22{letter-spacing:0em;}.cls-23{letter-spacing:0.01em;}.cls-24{font-size:33.23px;}.cls-25{letter-spacing:0em;}.cls-26{letter-spacing:0em;}.cls-27{letter-spacing:0em;}.cls-28{font-size:28.65px;}.cls-29{letter-spacing:0em;}.cls-30,.cls-52{font-size:29.24px;}.cls-31{letter-spacing:-0.01em;}.cls-32{letter-spacing:-0.04em;}.cls-33{letter-spacing:-0.01em;}.cls-34{letter-spacing:-0.09em;}.cls-35{letter-spacing:-0.03em;}.cls-36{letter-spacing:-0.02em;}.cls-37{font-size:28.23px;}.cls-38{letter-spacing:-0.02em;}.cls-39{letter-spacing:-0.01em;}.cls-40{letter-spacing:-0.02em;}.cls-41{letter-spacing:-0.01em;}.cls-42{letter-spacing:0em;}.cls-43{letter-spacing:-0.01em;}.cls-44{letter-spacing:-0.01em;}.cls-45{letter-spacing:-0.02em;}.cls-46{letter-spacing:0em;}.cls-47{font-size:15px;}.cls-48{letter-spacing:-0.01em;}.cls-49{letter-spacing:-0.01em;}.cls-50{letter-spacing:-0.04em;}.cls-51{letter-spacing:-0.01em;}.cls-52{letter-spacing:-0.04em;}.cls-53{letter-spacing:-0.01em;}</style></defs><title>roap map</title><g id="Capa_2" data-name="Capa 2"><g id="Capa_1-2" data-name="Capa 1"><rect class="cls-1" x="509.15" y="535.68" width="232.25" height="70.51" rx="5.11"/><text class="cls-2" transform="translate(526.95 578.68)"><tspan class="cls-3">V</tspan><tspan x="16.58" y="0">er más de</tspan><tspan class="cls-4" x="134.39" y="0">t</tspan><tspan x="144.76" y="0">alles</tspan></text><path class="cls-5" d="M631.74,250.84c-.18,2.3-.26,4.62-.26,7s.08,4.67.26,7a111.88,111.88,0,0,1-111.68,105A111.92,111.92,0,0,1,408.15,257.8c0-1.78,0-3.57-.17-5.35h19.54c.09,1.78.14,3.57.14,5.35a92.4,92.4,0,0,0,184.53,7c.18-2.29.27-4.62.27-7s-.09-4.66-.27-7c.06-.86.12-1.72.2-2.58H632C631.89,249.12,631.8,250,631.74,250.84Z"/><path class="cls-6" d="M1020,260.52h0c0-.5.07-1,.1-1.5"/><path class="cls-5" d="M1039.58,260.51c0,.3,0,.6-.07.9l0,.54a1.66,1.66,0,0,1,0,.32l.06-2.83c0,.3,0,.59.06.89C1039.57,260.39,1039.58,260.45,1039.58,260.51Z"/><path class="cls-7" d="M427.52,252.45H408a92.4,92.4,0,0,0-184.39-1.61c-.18,2.3-.26,4.62-.26,7h-19c0-2.34-.08-4.66-.26-7a110.61,110.61,0,0,1,9.77-39.26,111.91,111.91,0,0,1,204.08.55A110.64,110.64,0,0,1,427.52,252.45Z"/><path class="cls-5" d="M223.59,264.76A110.72,110.72,0,0,1,213.82,304,111.9,111.9,0,1,1,149,152.2L137.7,169.07a92.4,92.4,0,1,0,66.35,95.69c.18-2.29.26-4.62.26-7h19C223.33,260.14,223.41,262.47,223.59,264.76Z"/><path class="cls-7" d="M1243.59,244a111.64,111.64,0,0,1-39,84.83h-36.28a92.4,92.4,0,1,0-128.77-91.78c-.18,2.29.26,4.62.26,6.95h-19.54c0-2.33-.08-4.66-.26-6.95a110.72,110.72,0,0,1,9.77-39.27A111.9,111.9,0,0,1,1243.59,244Z"/><path class="cls-7" d="M835.4,248.26H815.81a92.42,92.42,0,0,0-183.84,0H612.39A110.63,110.63,0,0,1,622,211.58a111.91,111.91,0,0,1,204.08.55A110.3,110.3,0,0,1,835.4,248.26Z"/><path class="cls-8" d="M171.57,184.05c13.55,7.83,22,18.63,22.05,30.54.12,23.83-33.23,43.21-74.36,43.21C98.69,257.8,80,253,66.47,245.13s-22-18.63-22-30.54c-.13-23.82,33.22-43.2,74.35-43.21C139.34,171.38,158,176.23,171.57,184.05Z"/><path class="cls-5" d="M178.69,158.56l0,51c.1,19.06-26.58,34.56-59.49,34.57-16.45,0-31.39-3.88-42.23-10.14s-17.58-14.9-17.64-24.43l0-51c.06,9.53,6.8,18.17,17.64,24.43s25.79,10.14,42.24,10.14C152.11,193.13,178.79,177.62,178.69,158.56Z"/><path class="cls-9" d="M161.05,134.13c10.84,6.26,17.59,14.9,17.64,24.43.1,19.06-26.58,34.57-59.48,34.57-16.45,0-31.39-3.88-42.24-10.14s-17.58-14.9-17.64-24.43C59.24,139.5,85.91,124,118.82,124,135.27,124,150.21,127.87,161.05,134.13Z"/><path class="cls-8" d="M574.42,186.08c14.32,8.27,23.23,19.69,23.31,32.28.13,25.18-35.12,45.66-78.59,45.67-21.74,0-41.48-5.12-55.8-13.39S440.11,231,440,218.36c-.13-25.18,35.12-45.67,78.59-45.67C540.36,172.69,560.1,177.81,574.42,186.08Z"/><path class="cls-5" d="M582,159.14l0,53.89c.1,20.14-28.09,36.53-62.87,36.53-17.39,0-33.19-4.1-44.64-10.71S455.83,223.1,455.77,213l0-53.89c.06,10.07,7.18,19.2,18.64,25.82s27.25,10.71,44.64,10.72C553.86,195.67,582.06,179.28,582,159.14Z"/><path class="cls-9" d="M563.31,133.32c11.46,6.61,18.58,15.75,18.64,25.82.11,20.14-28.09,36.53-62.87,36.54-17.39,0-33.18-4.1-44.64-10.72s-18.58-15.75-18.64-25.82c-.11-20.15,28.09-36.53,62.87-36.54C536.06,122.6,551.85,126.7,563.31,133.32Z"/><path class="cls-8" d="M967.2,184.39c12.35,7.13,20,17,20.1,27.83.11,21.72-30.28,39.38-67.78,39.39-18.74,0-35.77-4.42-48.12-11.55s-20-17-20.1-27.84c-.11-21.72,30.29-39.38,67.78-39.39C937.83,172.84,954.85,177.25,967.2,184.39Z"/><path class="cls-5" d="M973.7,161.15l0,46.47c.09,17.38-24.22,31.51-54.22,31.51-15,0-28.61-3.53-38.49-9.24s-16-13.58-16.08-22.27l0-46.47c.05,8.69,6.2,16.56,16.08,22.27s23.5,9.24,38.5,9.24C949.47,192.65,973.79,178.52,973.7,161.15Z"/><path class="cls-9" d="M957.62,138.88c9.88,5.71,16,13.58,16.08,22.27.09,17.37-24.23,31.5-54.22,31.51-15,0-28.62-3.54-38.5-9.24s-16-13.58-16.08-22.27c-.09-17.37,24.23-31.51,54.22-31.51C934.12,129.64,947.74,133.18,957.62,138.88Z"/><line class="cls-6" x1="148.97" y1="152.2" x2="137.7" y2="169.07"/><text class="cls-10" transform="translate(73.38 50.24)">C<tspan class="cls-11" x="10.78" y="0">r</tspan><tspan x="16.53" y="0">eación de </tspan><tspan x="0" y="14.44">Po</tspan><tspan class="cls-12" x="17.68" y="14.44">r</tspan><tspan class="cls-13" x="23.72" y="14.44">t</tspan><tspan class="cls-14" x="29.33" y="14.44">a</tspan><tspan class="cls-15" x="38.33" y="14.44">f</tspan><tspan class="cls-16" x="43.37" y="14.44">olios</tspan></text><text class="cls-17" transform="translate(78.18 163.15)"><tspan class="cls-18">2</tspan><tspan class="cls-19" x="17.89" y="0">0</tspan><tspan x="39.04" y="0">18</tspan></text><path class="cls-8" d="M370.77,276.49c14.18,8.19,23,19.49,23.07,32,.13,24.92-34.76,45.2-77.8,45.21-21.52,0-41.05-5.08-55.23-13.26s-23-19.49-23.07-31.95c-.13-24.93,34.76-45.21,77.79-45.21C337.05,263.24,356.59,268.31,370.77,276.49Z"/><path class="cls-7" d="M378.23,249.82l0,53.35c.1,19.94-27.81,36.16-62.24,36.17-17.21,0-32.84-4.06-44.19-10.61s-18.39-15.59-18.45-25.56l0-53.35c.06,10,7.12,19,18.46,25.56S298.77,286,316,286C350.42,286,378.33,269.77,378.23,249.82Z"/><path class="cls-20" d="M359.77,224.26c11.34,6.55,18.4,15.59,18.46,25.56C378.33,269.77,350.42,286,316,286c-17.22,0-32.85-4.06-44.19-10.61s-18.4-15.59-18.46-25.56c-.1-19.94,27.81-36.16,62.24-36.16C332.8,213.66,348.43,217.71,359.77,224.26Z"/><text class="cls-21" transform="translate(276.82 257.04)"><tspan class="cls-22">2</tspan><tspan class="cls-23" x="19.5" y="0">0</tspan><tspan x="42.58" y="0">19</tspan></text><text class="cls-24" transform="translate(479.38 168.99)"><tspan class="cls-25">2</tspan><tspan x="18.91" y="0">0</tspan><tspan class="cls-25" x="40.93" y="0">2</tspan><tspan class="cls-26" x="59.84" y="0">0</tspan></text><path class="cls-8" d="M774,276.88c13.41,7.74,21.75,18.43,21.82,30.22.13,23.58-32.87,42.76-73.58,42.77-20.35,0-38.83-4.8-52.24-12.55s-21.75-18.43-21.82-30.22c-.13-23.57,32.87-42.75,73.58-42.76C742.08,264.34,760.56,269.14,774,276.88Z"/><path class="cls-7" d="M781,251.66l0,50.45c.1,18.86-26.3,34.21-58.86,34.21-16.29,0-31.07-3.84-41.8-10s-17.4-14.75-17.46-24.18l0-50.45c.05,9.43,6.73,18,17.45,24.17s25.52,10,41.8,10C754.72,285.86,781.12,270.52,781,251.66Z"/><path class="cls-20" d="M763.57,227.48c10.73,6.19,17.4,14.74,17.46,24.18.09,18.86-26.31,34.2-58.87,34.21-16.28,0-31.07-3.84-41.8-10s-17.4-14.74-17.45-24.17c-.1-18.87,26.3-34.21,58.86-34.21C738.06,217.45,752.84,221.29,763.57,227.48Z"/><text class="cls-24" transform="translate(684.3 262.01)"><tspan class="cls-27">2</tspan><tspan x="18.91" y="0">021</tspan></text><text class="cls-28" transform="translate(885.22 169.76)"><tspan class="cls-29">2</tspan><tspan x="16.3" y="0">022</tspan></text><path class="cls-8" d="M1197.94,276.81c13.55,7.83,22,18.63,22,30.54.13,23.82-33.22,43.2-74.35,43.21-20.57,0-39.24-4.85-52.8-12.67s-22-18.63-22-30.54c-.12-23.83,33.23-43.21,74.36-43.21C1165.72,264.14,1184.39,269,1197.94,276.81Z"/><path class="cls-7" d="M1205.07,251.32l0,51c.09,19.07-26.58,34.57-59.49,34.57-16.45,0-31.39-3.88-42.23-10.13s-17.59-14.9-17.64-24.43l0-51c.06,9.53,6.8,18.17,17.64,24.43s25.78,10.14,42.23,10.14C1178.49,285.88,1205.17,270.38,1205.07,251.32Z"/><path class="cls-20" d="M1187.43,226.89c10.84,6.26,17.58,14.9,17.64,24.43.1,19.06-26.58,34.56-59.49,34.57-16.45,0-31.39-3.88-42.23-10.14s-17.58-14.9-17.64-24.43c-.1-19.06,26.58-34.56,59.49-34.57C1161.65,216.75,1176.59,220.63,1187.43,226.89Z"/><text class="cls-28" transform="translate(1111.17 260.74)"><tspan class="cls-29">2</tspan><tspan x="16.3" y="0">023</tspan></text><text class="cls-30" transform="translate(73.38 24.42)">Inicios</text><text class="cls-10" transform="translate(247 433.44)">Men<tspan class="cls-13" x="29.25" y="0">t</tspan><tspan x="34.86" y="0">oria, Asesoria </tspan><tspan x="0" y="14.44">y Cu</tspan><tspan class="cls-31" x="30.94" y="14.44">r</tspan><tspan x="36.72" y="14.44">sos de </tspan><tspan class="cls-32" x="83.33" y="14.44">T</tspan><tspan class="cls-33" x="91.48" y="14.44">r</tspan><tspan x="97.23" y="14.44">ading</tspan></text><text class="cls-10" transform="translate(685.1 435.86)">ICO: E<tspan class="cls-11" x="41.06" y="0">v</tspan><tspan x="48.85" y="0">ul</tspan><tspan class="cls-31" x="61.19" y="0">u</tspan><tspan x="69.78" y="0">s </tspan><tspan class="cls-34" x="80.29" y="0">T</tspan><tspan x="87.77" y="0">o</tspan><tspan class="cls-35" x="96.24" y="0">k</tspan><tspan x="104.05" y="0">en (EVU)</tspan><tspan x="0" y="16.8">Lis</tspan><tspan class="cls-13" x="19.18" y="16.8">t</tspan><tspan x="24.79" y="16.8">amien</tspan><tspan class="cls-13" x="67.7" y="16.8">t</tspan><tspan x="73.32" y="16.8">o EVU en E</tspan><tspan class="cls-36" x="146.72" y="16.8">x</tspan><tspan x="154.61" y="16.8">changes</tspan><tspan x="0" y="33.6">E</tspan><tspan class="cls-36" x="8.9" y="33.6">x</tspan><tspan x="16.8" y="33.6">change de p</tspan><tspan class="cls-33" x="101.21" y="33.6">r</tspan><tspan x="106.96" y="33.6">áctica (Dem</tspan><tspan class="cls-36" x="190.85" y="33.6">o</tspan><tspan x="199.04" y="33.6">)</tspan></text><text class="cls-30" transform="translate(247 411.22)">Servicios</text><text class="cls-37" transform="translate(685.1 410.9)">E<tspan class="cls-38" x="17.96" y="0">x</tspan><tspan x="33.88" y="0">change</tspan></text><text class="cls-37" transform="translate(1076.06 410.9)">P<tspan class="cls-39" x="18.58" y="0">r</tspan><tspan class="cls-40" x="30.18" y="0">o</tspan><tspan x="46.7" y="0">ximamen</tspan><tspan class="cls-41" x="176.49" y="0">t</tspan><tspan class="cls-42" x="187.81" y="0">e</tspan></text><text class="cls-10" transform="translate(839.69 50.42)"><tspan class="cls-43">A</tspan><tspan x="9.65" y="0">cademia Dinamica</tspan><tspan x="0" y="16.8">Cuen</tspan><tspan class="cls-13" x="36.22" y="16.8">t</tspan><tspan x="41.83" y="16.8">a Moni</tspan><tspan class="cls-13" x="87.81" y="16.8">t</tspan><tspan x="93.42" y="16.8">o</tspan><tspan class="cls-11" x="101.89" y="16.8">r</tspan><tspan x="107.65" y="16.8">eada</tspan><tspan x="0" y="33.6">E</tspan><tspan class="cls-11" x="8.9" y="33.6">v</tspan><tspan x="16.69" y="33.6">ul</tspan><tspan class="cls-31" x="29.04" y="33.6">u</tspan><tspan x="37.62" y="33.6">s E</tspan><tspan class="cls-36" x="57.04" y="33.6">x</tspan><tspan x="64.93" y="33.6">change</tspan><tspan x="0" y="50.4">Pla</tspan><tspan class="cls-13" x="21.88" y="50.4">t</tspan><tspan x="27.5" y="50.4">a</tspan><tspan class="cls-15" x="36.5" y="50.4">f</tspan><tspan x="41.54" y="50.4">orma </tspan><tspan class="cls-43" x="81.62" y="50.4">S</tspan><tspan x="90.34" y="50.4">t</tspan><tspan class="cls-33" x="96.14" y="50.4">r</tspan><tspan x="101.89" y="50.4">eaming de Crip</tspan><tspan class="cls-44" x="207.21" y="50.4">t</tspan><tspan x="212.83" y="50.4">o</tspan></text><text class="cls-30" transform="translate(839.69 26.04)">E<tspan class="cls-45" x="18.6" y="0">x</tspan><tspan class="cls-46" x="35.09" y="0">change</tspan></text><text class="cls-47" transform="translate(459.65 51.25)">Men<tspan class="cls-48" x="31.33" y="0">t</tspan><tspan x="37.35" y="0">oria, Asesoria </tspan><tspan x="0" y="18">y Cu</tspan><tspan class="cls-49" x="33.15" y="18">r</tspan><tspan x="39.34" y="18">sos de </tspan><tspan class="cls-50" x="0" y="36">T</tspan><tspan class="cls-51" x="8.73" y="36">r</tspan><tspan x="14.89" y="36">ading</tspan></text><text class="cls-52" transform="translate(453.6 26.66)">T<tspan class="cls-53" x="17.02" y="0">r</tspan><tspan class="cls-46" x="29.04" y="0">ading</tspan></text><line class="cls-6" x1="951.69" y1="148.37" x2="934.25" y2="165.6"/><path class="cls-5" d="M1039.8,244l-.29,15.43-.06,2.83v.07q0-.18,0-.39l0-.54q0-.5.06-1.08Z"/><path class="cls-5" d="M1020.13,259a.37.37,0,0,0,0-.11c.1-1.77.15-3.56.15-5.35,0-.92,0-1.84,0-2.76V244h19.54l-.29,15.43-.06,2.83v.07a110.49,110.49,0,0,1-9.65,37.44A111.91,111.91,0,0,1,816,253.55c0-1.78,0-3.57-.16-5.35h19.54c.08,1.78.13,3.57.13,5.35a92.4,92.4,0,0,0,184.54,7Z"/><path class="cls-6" d="M1020,260.52h0c0-.5.07-1,.1-1.5"/><line class="cls-6" x1="1161.45" y1="328.84" x2="1214.01" y2="328.84"/><line class="cls-6" x1="1204.59" y1="328.84" x2="1168.31" y2="328.84"/></g></g></svg>