<svg xmlns="http://www.w3.org/2000/svg" viewBox="0 0 118.23 148.96"><defs><style>.cls-1{fill:#fff;}.cls-2{fill:#3375bb;}.cls-3{font-size:18.55px;fill:#08907a;font-family:GalanoGrotesque-Medium, Galano Grotesque;font-weight:500;}.cls-4{letter-spacing:-0.04em;}.cls-5{letter-spacing:-0.01em;}.cls-6{letter-spacing:-0.04em;}</style></defs><title>trustwallet</title><g id="Capa_2" data-name="Capa 2"><g id="Capa_1-2" data-name="Capa 1"><rect class="cls-1" width="118.23" height="118.23" rx="22.99"/><path class="cls-2" d="M100.65,30.94c-.33,7.78-.52,15.57-1,23.33a151,151,0,0,1-2.81,21.36C94.54,86.37,88.88,94.42,79,99.5a155.17,155.17,0,0,0-19,11.23,4,4,0,0,1-4.95,0,142.44,142.44,0,0,0-19-11.23c-10.47-5.36-15.9-14.14-18-25.35a164.21,164.21,0,0,1-2.4-19.79c-.55-8-.83-15.94-.92-23.92a20,20,0,0,0-.15-2.05A4.63,4.63,0,0,1,19.41,23a65.6,65.6,0,0,0,18.44-2.26,47,47,0,0,0,16.34-8.44c2.58-2.06,4.26-2.09,6.84,0a48,48,0,0,0,25.09,10.2,89.38,89.38,0,0,0,9.67.53c3.1,0,4.77,1.75,4.77,4.87v3.09Zm-76.89,4.7c.4,7.13.48,14.28,1.12,21.4a133.11,133.11,0,0,0,2.43,17.12c1.62,7.28,5.13,13.13,11.92,16.78,6,3.23,12,6.38,17.7,10.2a1.2,1.2,0,0,0,1.48-.06c5.89-4,12.29-7.12,18.45-10.67A22.08,22.08,0,0,0,87.3,76.62c2.22-7.82,2.91-15.86,3.46-23.9.44-6.49.55-13,.82-19.51,0-.88-.19-1.33-1.22-1.38-1.75-.07-3.5-.32-5.25-.51a56.64,56.64,0,0,1-26.33-9.65,1.77,1.77,0,0,0-2.34,0,58.87,58.87,0,0,1-29.4,10c-4,.32-3.19-.53-3.28,3.4Z"/><text class="cls-3" transform="translate(3.46 145.12)"><tspan class="cls-4">T</tspan><tspan x="10.79" y="0">r</tspan><tspan class="cls-5" x="18.58" y="0">u</tspan><tspan x="29.96" y="0">st </tspan><tspan class="cls-6" x="51.56" y="0">W</tspan><tspan x="68.63" y="0">allet</tspan></text></g></g></svg>