<svg xmlns="http://www.w3.org/2000/svg" viewBox="0 0 119.3 148.96"><defs><style>.cls-1{fill:#fed210;}.cls-2{font-size:18.55px;fill:#08907a;font-family:GalanoGrotesque-Medium, Galano Grotesque;font-weight:500;}.cls-3{letter-spacing:-0.01em;}.cls-4{letter-spacing:-0.01em;}.cls-5{letter-spacing:0em;}</style></defs><title>unstopable</title><g id="Capa_2" data-name="Capa 2"><g id="Capa_1-2" data-name="Capa 1"><rect class="cls-1" x="1.07" width="118.23" height="118.23" rx="22.99"/><path d="M40.07,28.25c0-8.19,0-16.38,0-24.58,0-1.08.22-1.47,1.4-1.45,4.33.08,8.67.09,13,0,1.22,0,1.48.34,1.48,1.49q0,23.7,0,47.4c0,.51,0,1,0,1.52a3.76,3.76,0,0,0,7.49.06c0-.54,0-1.09,0-1.64q0-23.58,0-47.17c0-1.63,0-1.63,1.63-1.63,4.14,0,8.28,0,12.42,0,1.86,0,1.77-.41,1.78,1.83l0,36.75c0,3.87,0,7.73,0,11.59a19.67,19.67,0,0,1-39.22,2A32.4,32.4,0,0,1,40,51.19q0-11.46,0-22.94Z"/><text class="cls-2" transform="translate(0 145.12)"><tspan class="cls-3">U</tspan><tspan x="13.17" y="0">ns</tspan><tspan class="cls-4" x="34.02" y="0">t</tspan><tspan class="cls-5" x="41.46" y="0">oppable</tspan></text></g></g></svg>