<svg width="126" height="73" viewBox="0 0 126 73" fill="none" xmlns="http://www.w3.org/2000/svg">
<path d="M106.77 11.26C118.11 17.81 125.17 26.85 125.23 36.82C125.33 56.77 97.42 73 63 73C45.78 73 30.15 68.94 18.81 62.39C7.47001 55.84 0.410015 46.8 0.350015 36.83C0.250015 16.89 28.16 0.670001 62.59 0.670001C79.8 0.660001 95.43 4.71 106.77 11.26Z" fill="#26B59D"/>
<path d="M41.8137 39.2158V41.76H25.8621V39.5338L33.8462 30.6458C34.8282 29.5522 35.587 28.626 36.1226 27.8672C36.6694 27.0973 37.0488 26.411 37.2608 25.8084C37.484 25.1947 37.5956 24.5698 37.5956 23.9337C37.5956 23.1303 37.4282 22.405 37.0935 21.7577C36.7699 21.0994 36.29 20.5749 35.654 20.1844C35.0179 19.7938 34.248 19.5985 33.3441 19.5985C32.2617 19.5985 31.3578 19.8105 30.6325 20.2346C29.9183 20.6474 29.3827 21.2277 29.0256 21.9753C28.6685 22.723 28.49 23.5822 28.49 24.553H25.3934C25.3934 23.1805 25.6947 21.9251 26.2973 20.7869C26.8999 19.6487 27.7926 18.7449 28.9754 18.0753C30.1582 17.3946 31.6145 17.0543 33.3441 17.0543C34.884 17.0543 36.2008 17.3277 37.2943 17.8745C38.3879 18.4101 39.2248 19.1689 39.8051 20.1509C40.3965 21.1217 40.6922 22.2599 40.6922 23.5655C40.6922 24.2797 40.5694 25.005 40.324 25.7415C40.0896 26.4668 39.7604 27.1921 39.3364 27.9174C38.9235 28.6428 38.4381 29.3569 37.8802 30.0599C37.3334 30.7629 36.7475 31.4548 36.1226 32.1355L29.5947 39.2158H41.8137ZM60.4266 27.6329V31.3488C60.4266 33.3462 60.2481 35.0312 59.891 36.4037C59.5339 37.7763 59.0206 38.881 58.3511 39.7179C57.6815 40.5548 56.8725 41.163 55.924 41.5424C54.9867 41.9106 53.9266 42.0948 52.7438 42.0948C51.8064 42.0948 50.9416 41.9776 50.1493 41.7433C49.357 41.5089 48.6429 41.1351 48.0068 40.6218C47.3819 40.0973 46.8463 39.4166 46.3999 38.5797C45.9536 37.7428 45.6132 36.7274 45.3789 35.5334C45.1446 34.3394 45.0274 32.9445 45.0274 31.3488V27.6329C45.0274 25.6355 45.206 23.9616 45.563 22.6114C45.9313 21.2612 46.4502 20.1788 47.1197 19.3642C47.7892 18.5384 48.5927 17.947 49.53 17.5899C50.4785 17.2328 51.5386 17.0543 52.7103 17.0543C53.6588 17.0543 54.5292 17.1715 55.3215 17.4058C56.1249 17.629 56.8391 17.9916 57.464 18.4938C58.0888 18.9848 58.6189 19.6431 59.0541 20.4689C59.5004 21.2835 59.8408 22.2822 60.0751 23.4651C60.3095 24.6479 60.4266 26.0372 60.4266 27.6329ZM57.3133 31.8509V27.114C57.3133 26.0204 57.2464 25.0608 57.1124 24.235C56.9897 23.3981 56.8056 22.6839 56.5601 22.0925C56.3146 21.5011 56.0021 21.0213 55.6227 20.653C55.2545 20.2848 54.8249 20.017 54.3339 19.8496C53.8541 19.671 53.3129 19.5818 52.7103 19.5818C51.9738 19.5818 51.321 19.7213 50.7519 20.0002C50.1828 20.268 49.703 20.6977 49.3124 21.2891C48.933 21.8805 48.6429 22.656 48.442 23.6157C48.2412 24.5754 48.1407 25.7415 48.1407 27.114V31.8509C48.1407 32.9445 48.2021 33.9097 48.3249 34.7467C48.4588 35.5836 48.654 36.3089 48.9107 36.9226C49.1673 37.5252 49.4798 38.0218 49.848 38.4123C50.2163 38.8029 50.6403 39.093 51.1201 39.2827C51.6111 39.4613 52.1523 39.5505 52.7438 39.5505C53.5026 39.5505 54.1665 39.4055 54.7356 39.1153C55.3047 38.8252 55.779 38.3733 56.1584 37.7595C56.5489 37.1346 56.8391 36.3368 57.0288 35.366C57.2185 34.384 57.3133 33.2123 57.3133 31.8509ZM74.5872 17.2552V41.76H71.4906V21.1217L65.2473 23.3981V20.6028L74.1018 17.2552H74.5872ZM86.7727 39.1656H87.0907C88.8761 39.1656 90.3268 38.9145 91.4427 38.4123C92.5585 37.9102 93.4178 37.2351 94.0204 36.387C94.6229 35.5389 95.0358 34.5849 95.259 33.5248C95.4822 32.4535 95.5938 31.3544 95.5938 30.2273V26.4947C95.5938 25.39 95.4654 24.408 95.2088 23.5487C94.9633 22.6895 94.6174 21.9698 94.171 21.3895C93.7358 20.8092 93.2392 20.3685 92.6813 20.0672C92.1233 19.7659 91.5319 19.6152 90.907 19.6152C90.1929 19.6152 89.5512 19.7603 88.9821 20.0504C88.4242 20.3294 87.9499 20.7256 87.5594 21.2389C87.18 21.7522 86.8898 22.3547 86.689 23.0466C86.4881 23.7384 86.3877 24.4917 86.3877 25.3063C86.3877 26.0316 86.477 26.7346 86.6555 27.4153C86.8341 28.096 87.1074 28.7097 87.4757 29.2565C87.8439 29.8033 88.3014 30.2385 88.8482 30.5621C89.4062 30.8745 90.059 31.0308 90.8066 31.0308C91.4985 31.0308 92.1457 30.8969 92.7482 30.629C93.362 30.3501 93.9032 29.9762 94.3719 29.5076C94.8517 29.0277 95.2311 28.4865 95.5101 27.884C95.8002 27.2814 95.9676 26.6509 96.0122 25.9925H97.4852C97.4852 26.9187 97.3011 27.8337 96.9328 28.7376C96.5757 29.6303 96.0736 30.4449 95.4264 31.1814C94.7792 31.9179 94.0204 32.5093 93.15 32.9557C92.2796 33.3909 91.3311 33.6085 90.3045 33.6085C89.0993 33.6085 88.0559 33.3741 87.1744 32.9054C86.2928 32.4368 85.5675 31.8119 84.9984 31.0308C84.4405 30.2496 84.022 29.3792 83.7431 28.4196C83.4752 27.4488 83.3413 26.4668 83.3413 25.4736C83.3413 24.3131 83.5031 23.2251 83.8267 22.2097C84.1503 21.1942 84.6302 20.3015 85.2662 19.5316C85.9023 18.7504 86.689 18.1423 87.6263 17.7071C88.5748 17.2719 89.6684 17.0543 90.907 17.0543C92.3019 17.0543 93.4903 17.3333 94.4723 17.8912C95.4543 18.4491 96.2521 19.1968 96.8659 20.1341C97.4908 21.0715 97.9483 22.126 98.2384 23.2977C98.5285 24.4694 98.6736 25.6745 98.6736 26.9131V28.0346C98.6736 29.2956 98.5899 30.5788 98.4225 31.8844C98.2663 33.1788 97.9594 34.4175 97.5019 35.6003C97.0556 36.7831 96.4028 37.8432 95.5435 38.7806C94.6843 39.7068 93.5628 40.4432 92.1791 40.99C90.8066 41.5257 89.1105 41.7935 87.0907 41.7935H86.7727V39.1656Z" fill="white"/>
</svg>
