<svg width="120" height="69" viewBox="0 0 120 69" fill="none" xmlns="http://www.w3.org/2000/svg">
<path d="M101.57 10.48C112.3 16.67 118.97 25.22 119.03 34.66C119.12 53.52 92.72 68.86 60.16 68.87C43.8799 68.87 29.09 65.03 18.36 58.87C7.62996 52.71 0.959951 44.13 0.909951 34.7C0.809951 15.83 27.21 0.49001 59.77 0.49001C76.06 0.45001 90.84 4.29 101.57 10.48Z" fill="#26B59D"/>
<path d="M39.7424 40.3137V42.78H24.2794V40.622L32.0191 32.0062C32.971 30.9461 33.7065 30.0483 34.2257 29.3128C34.7558 28.5664 35.1235 27.9011 35.3291 27.317C35.5454 26.7221 35.6536 26.1163 35.6536 25.4997C35.6536 24.7209 35.4913 24.0178 35.1668 23.3904C34.8531 22.7522 34.388 22.2438 33.7714 21.8652C33.1548 21.4866 32.4085 21.2973 31.5323 21.2973C30.483 21.2973 29.6068 21.5028 28.9037 21.9139C28.2114 22.3141 27.6922 22.8766 27.3461 23.6014C26.9999 24.3261 26.8269 25.159 26.8269 26.1001H23.8251C23.8251 24.7696 24.1172 23.5527 24.7013 22.4493C25.2854 21.346 26.1508 20.4698 27.2974 19.8208C28.444 19.161 29.8556 18.831 31.5323 18.831C33.025 18.831 34.3015 19.0961 35.3615 19.6261C36.4216 20.1453 37.2329 20.8809 37.7954 21.8328C38.3687 22.7739 38.6553 23.8772 38.6553 25.1428C38.6553 25.8351 38.5363 26.5382 38.2984 27.2521C38.0712 27.9552 37.7521 28.6583 37.341 29.3614C36.9408 30.0645 36.4703 30.7568 35.9294 31.4383C35.3994 32.1198 34.8315 32.7904 34.2257 33.4503L27.8978 40.3137H39.7424ZM57.7853 29.0856V32.6877C57.7853 34.6239 57.6122 36.2573 57.2661 37.5878C56.9199 38.9183 56.4223 39.9892 55.7733 40.8005C55.1243 41.6118 54.3401 42.2013 53.4206 42.5691C52.512 42.926 51.4843 43.1045 50.3377 43.1045C49.4291 43.1045 48.5908 42.9909 47.8228 42.7638C47.0548 42.5366 46.3625 42.1742 45.7459 41.6767C45.1401 41.1683 44.6209 40.5084 44.1882 39.6971C43.7556 38.8859 43.4256 37.9015 43.1985 36.7441C42.9713 35.5867 42.8577 34.2345 42.8577 32.6877V29.0856C42.8577 27.1494 43.0308 25.5268 43.377 24.2179C43.7339 22.9091 44.2369 21.8598 44.8859 21.0702C45.535 20.2697 46.3138 19.6964 47.2224 19.3503C48.1419 19.0041 49.1695 18.831 50.3053 18.831C51.2247 18.831 52.0685 18.9446 52.8365 19.1718C53.6153 19.3881 54.3076 19.7397 54.9134 20.2264C55.5191 20.7024 56.0329 21.3406 56.4548 22.1411C56.8875 22.9307 57.2174 23.8988 57.4445 25.0454C57.6717 26.192 57.7853 27.5388 57.7853 29.0856ZM54.7673 33.1745V28.5826C54.7673 27.5225 54.7024 26.5923 54.5726 25.7918C54.4536 24.9805 54.2751 24.2882 54.0372 23.7149C53.7992 23.1416 53.4963 22.6765 53.1285 22.3195C52.7716 21.9626 52.3551 21.703 51.8792 21.5407C51.414 21.3676 50.8894 21.2811 50.3053 21.2811C49.5914 21.2811 48.9586 21.4163 48.4069 21.6867C47.8552 21.9463 47.3901 22.3628 47.0115 22.9361C46.6437 23.5094 46.3625 24.2612 46.1678 25.1915C45.9731 26.1217 45.8757 27.2521 45.8757 28.5826V33.1745C45.8757 34.2345 45.9352 35.1702 46.0542 35.9815C46.184 36.7928 46.3733 37.4959 46.6221 38.0908C46.8709 38.6749 47.1738 39.1563 47.5307 39.5349C47.8877 39.9135 48.2987 40.1947 48.7639 40.3786C49.2398 40.5517 49.7644 40.6382 50.3377 40.6382C51.0733 40.6382 51.7169 40.4976 52.2686 40.2164C52.8203 39.9351 53.28 39.497 53.6478 38.9021C54.0264 38.2963 54.3076 37.5229 54.4915 36.5818C54.6754 35.6299 54.7673 34.4941 54.7673 33.1745ZM77.1262 40.3137V42.78H61.6632V40.622L69.4028 32.0062C70.3547 30.9461 71.0903 30.0483 71.6095 29.3128C72.1395 28.5664 72.5073 27.9011 72.7128 27.317C72.9292 26.7221 73.0373 26.1163 73.0373 25.4997C73.0373 24.7209 72.8751 24.0178 72.5506 23.3904C72.2369 22.7522 71.7717 22.2438 71.1552 21.8652C70.5386 21.4866 69.7922 21.2973 68.916 21.2973C67.8668 21.2973 66.9906 21.5028 66.2875 21.9139C65.5952 22.3141 65.076 22.8766 64.7298 23.6014C64.3837 24.3261 64.2106 25.159 64.2106 26.1001H61.2089C61.2089 24.7696 61.5009 23.5527 62.0851 22.4493C62.6692 21.346 63.5346 20.4698 64.6812 19.8208C65.8278 19.161 67.2394 18.831 68.916 18.831C70.4088 18.831 71.6852 19.0961 72.7453 19.6261C73.8053 20.1453 74.6166 20.8809 75.1791 21.8328C75.7524 22.7739 76.0391 23.8772 76.0391 25.1428C76.0391 25.8351 75.9201 26.5382 75.6821 27.2521C75.4549 27.9552 75.1358 28.6583 74.7248 29.3614C74.3246 30.0645 73.854 30.7568 73.3132 31.4383C72.7831 32.1198 72.2152 32.7904 71.6095 33.4503L65.2815 40.3137H77.1262ZM90.204 19.0257V42.78H87.2023V22.7739L81.1501 24.9805V22.2709L89.7335 19.0257H90.204Z" fill="white"/>
</svg>
