<svg width="121" height="70" viewBox="0 0 121 70" fill="none" xmlns="http://www.w3.org/2000/svg">
<path d="M102.43 10.89C113.27 17.15 120.01 25.79 120.07 35.32C120.17 54.38 93.49 69.88 60.58 69.89C44.13 69.89 29.19 66.01 18.35 59.75C7.51001 53.49 0.769997 44.85 0.709997 35.32C0.609997 16.26 27.29 0.76 60.2 0.75C76.65 0.75 91.5901 4.63 102.43 10.89Z" fill="#26B59D"/>
<path d="M41.2085 40.9636V43.09H27.8767V41.2294L34.5496 33.8011C35.3703 32.8872 36.0045 32.1131 36.4521 31.4789C36.9091 30.8354 37.2262 30.2618 37.4034 29.7582C37.5899 29.2453 37.6832 28.723 37.6832 28.1914C37.6832 27.52 37.5433 26.9138 37.2635 26.3728C36.9931 25.8226 36.592 25.3843 36.0604 25.0578C35.5289 24.7314 34.8854 24.5682 34.1299 24.5682C33.2253 24.5682 32.4699 24.7454 31.8637 25.0998C31.2668 25.4449 30.8191 25.9298 30.5207 26.5547C30.2223 27.1795 30.073 27.8977 30.073 28.709H27.485C27.485 27.5619 27.7368 26.5127 28.2405 25.5615C28.7441 24.6102 29.4902 23.8548 30.4787 23.2952C31.4673 22.7263 32.6844 22.4419 34.1299 22.4419C35.4169 22.4419 36.5174 22.6703 37.4314 23.1273C38.3454 23.575 39.0448 24.2092 39.5298 25.0299C40.0241 25.8412 40.2712 26.7925 40.2712 27.8837C40.2712 28.4805 40.1686 29.0867 39.9635 29.7023C39.7676 30.3085 39.4925 30.9147 39.1381 31.5209C38.793 32.1271 38.3873 32.724 37.921 33.3115C37.464 33.8991 36.9744 34.4773 36.4521 35.0462L30.9963 40.9636H41.2085ZM56.7646 31.2831V34.3887C56.7646 36.0581 56.6153 37.4663 56.3169 38.6134C56.0185 39.7606 55.5895 40.6838 55.0299 41.3833C54.4703 42.0828 53.7942 42.591 53.0014 42.9081C52.218 43.2159 51.3321 43.3698 50.3435 43.3698C49.5601 43.3698 48.8373 43.2719 48.1751 43.076C47.513 42.8802 46.9161 42.5677 46.3845 42.1387C45.8623 41.7004 45.4146 41.1315 45.0416 40.432C44.6685 39.7326 44.3841 38.8839 44.1882 37.886C43.9924 36.8881 43.8944 35.7223 43.8944 34.3887V31.2831C43.8944 29.6137 44.0437 28.2148 44.3421 27.0863C44.6499 25.9578 45.0835 25.0532 45.6431 24.3724C46.2027 23.6822 46.8741 23.1879 47.6575 22.8895C48.4503 22.5911 49.3363 22.4419 50.3155 22.4419C51.1082 22.4419 51.8357 22.5398 52.4978 22.7356C53.1693 22.9221 53.7662 23.2253 54.2885 23.6449C54.8107 24.0553 55.2537 24.6055 55.6174 25.2957C55.9905 25.9765 56.2749 26.8112 56.4708 27.7997C56.6666 28.7883 56.7646 29.9494 56.7646 31.2831ZM54.1625 34.8084V30.8494C54.1625 29.9354 54.1066 29.1334 53.9947 28.4432C53.8921 27.7438 53.7382 27.1469 53.533 26.6526C53.3279 26.1583 53.0667 25.7573 52.7496 25.4495C52.4419 25.1418 52.0828 24.918 51.6725 24.7781C51.2714 24.6288 50.8191 24.5542 50.3155 24.5542C49.7 24.5542 49.1544 24.6708 48.6788 24.904C48.2031 25.1278 47.8021 25.4868 47.4757 25.9811C47.1586 26.4754 46.9161 27.1236 46.7482 27.9256C46.5804 28.7277 46.4964 29.7023 46.4964 30.8494V34.8084C46.4964 35.7223 46.5477 36.529 46.6503 37.2285C46.7622 37.928 46.9254 38.5342 47.1399 39.0471C47.3544 39.5507 47.6156 39.9657 47.9233 40.2921C48.2311 40.6186 48.5855 40.861 48.9865 41.0196C49.3969 41.1688 49.8492 41.2434 50.3435 41.2434C50.9777 41.2434 51.5326 41.1222 52.0082 40.8797C52.4838 40.6372 52.8802 40.2595 53.1973 39.7466C53.5237 39.2243 53.7662 38.5575 53.9247 37.7461C54.0833 36.9254 54.1625 35.9461 54.1625 34.8084ZM73.4397 40.9636V43.09H60.108V41.2294L66.7809 33.8011C67.6016 32.8872 68.2357 32.1131 68.6834 31.4789C69.1404 30.8354 69.4575 30.2618 69.6347 29.7582C69.8212 29.2453 69.9145 28.723 69.9145 28.1914C69.9145 27.52 69.7746 26.9138 69.4948 26.3728C69.2243 25.8226 68.8233 25.3843 68.2917 25.0578C67.7601 24.7314 67.1166 24.5682 66.3612 24.5682C65.4565 24.5682 64.7011 24.7454 64.0949 25.0998C63.498 25.4449 63.0504 25.9298 62.752 26.5547C62.4535 27.1795 62.3043 27.8977 62.3043 28.709H59.7163C59.7163 27.5619 59.9681 26.5127 60.4717 25.5615C60.9753 24.6102 61.7214 23.8548 62.71 23.2952C63.6986 22.7263 64.9156 22.4419 66.3612 22.4419C67.6482 22.4419 68.7487 22.6703 69.6626 23.1273C70.5766 23.575 71.2761 24.2092 71.761 25.0299C72.2553 25.8412 72.5025 26.7925 72.5025 27.8837C72.5025 28.4805 72.3999 29.0867 72.1947 29.7023C71.9989 30.3085 71.7237 30.9147 71.3693 31.5209C71.0243 32.1271 70.6186 32.724 70.1523 33.3115C69.6953 33.8991 69.2057 34.4773 68.6834 35.0462L63.2276 40.9636H73.4397ZM79.9867 31.6328H81.8333C82.7379 31.6328 83.484 31.4836 84.0716 31.1851C84.6685 30.8774 85.1115 30.4624 85.4006 29.9401C85.699 29.4085 85.8482 28.8116 85.8482 28.1495C85.8482 27.3661 85.7177 26.7086 85.4565 26.177C85.1954 25.6454 84.8037 25.2444 84.2814 24.9739C83.7592 24.7034 83.097 24.5682 82.2949 24.5682C81.5675 24.5682 80.924 24.7128 80.3644 25.0019C79.8142 25.2817 79.3805 25.6827 79.0634 26.205C78.7557 26.7272 78.6018 27.3428 78.6018 28.0515H76.0138C76.0138 27.0163 76.2749 26.0744 76.7972 25.2257C77.3194 24.377 78.0515 23.7009 78.9935 23.1973C79.9448 22.6937 81.0452 22.4419 82.2949 22.4419C83.526 22.4419 84.6032 22.661 85.5265 23.0993C86.4498 23.5284 87.1679 24.1719 87.6808 25.0299C88.1938 25.8785 88.4502 26.9371 88.4502 28.2054C88.4502 28.7184 88.329 29.2686 88.0865 29.8562C87.8533 30.4344 87.485 30.9753 86.9814 31.4789C86.4871 31.9825 85.8436 32.3975 85.0508 32.724C84.2581 33.041 83.3068 33.1996 82.197 33.1996H79.9867V31.6328ZM79.9867 33.7592V32.2064H82.197C83.4934 32.2064 84.5659 32.3602 85.4146 32.668C86.2632 32.9758 86.9301 33.3861 87.415 33.8991C87.9093 34.412 88.2544 34.9762 88.4502 35.5918C88.6554 36.198 88.758 36.8042 88.758 37.4104C88.758 38.3616 88.5948 39.2056 88.2684 39.9424C87.9513 40.6792 87.499 41.304 86.9114 41.817C86.3332 42.3299 85.6524 42.7169 84.869 42.9781C84.0856 43.2392 83.2322 43.3698 82.3089 43.3698C81.423 43.3698 80.5883 43.2439 79.8049 42.9921C79.0308 42.7403 78.3453 42.3765 77.7484 41.9009C77.1516 41.4159 76.6853 40.8237 76.3495 40.1243C76.0138 39.4155 75.8459 38.6088 75.8459 37.7041H78.4339C78.4339 38.4129 78.5878 39.0331 78.8956 39.5647C79.2126 40.0963 79.6603 40.5113 80.2385 40.8097C80.8261 41.0989 81.5162 41.2434 82.3089 41.2434C83.1017 41.2434 83.7825 41.1082 84.3514 40.8377C84.9296 40.5579 85.3726 40.1383 85.6803 39.5787C85.9974 39.0191 86.156 38.315 86.156 37.4663C86.156 36.6176 85.9788 35.9228 85.6244 35.3819C85.27 34.8317 84.7664 34.426 84.1136 34.1648C83.47 33.8944 82.71 33.7592 81.8333 33.7592H79.9867Z" fill="white"/>
</svg>
