<svg width="127" height="74" viewBox="0 0 127 74" fill="none" xmlns="http://www.w3.org/2000/svg">
<path d="M108.31 11.32C119.77 17.93 126.89 27.07 126.95 37.14C127.06 57.28 98.86 73.67 64.08 73.68C46.69 73.68 30.9 69.58 19.44 62.96C7.97999 56.34 0.859973 47.21 0.799973 37.14C0.689973 16.99 28.89 0.609991 63.67 0.599991C81.06 0.599991 96.85 4.7 108.31 11.32Z" fill="#32D9AF"/>
<path d="M41.8225 42.2937V44.76H26.3595V42.602L34.0991 33.9862C35.051 32.9261 35.7866 32.0283 36.3058 31.2928C36.8358 30.5464 37.2036 29.8811 37.4092 29.297C37.6255 28.7021 37.7337 28.0963 37.7337 27.4797C37.7337 26.7009 37.5714 25.9978 37.2469 25.3704C36.9332 24.7322 36.4681 24.2238 35.8515 23.8452C35.2349 23.4666 34.4885 23.2773 33.6124 23.2773C32.5631 23.2773 31.6869 23.4828 30.9838 23.8939C30.2915 24.2941 29.7723 24.8566 29.4262 25.5814C29.08 26.3061 28.9069 27.139 28.9069 28.0801H25.9052C25.9052 26.7496 26.1973 25.5327 26.7814 24.4293C27.3655 23.326 28.2309 22.4498 29.3775 21.8008C30.5241 21.141 31.9357 20.811 33.6124 20.811C35.1051 20.811 36.3815 21.076 37.4416 21.6061C38.5017 22.1253 39.313 22.8609 39.8754 23.8128C40.4487 24.7538 40.7354 25.8572 40.7354 27.1228C40.7354 27.8151 40.6164 28.5182 40.3784 29.2321C40.1513 29.9352 39.8322 30.6383 39.4211 31.3414C39.0209 32.0445 38.5503 32.7368 38.0095 33.4183C37.4795 34.0998 36.9116 34.7704 36.3058 35.4303L29.9778 42.2937H41.8225ZM59.8654 31.0656V34.6677C59.8654 36.6039 59.6923 38.2373 59.3461 39.5678C59 40.8983 58.5024 41.9692 57.8534 42.7805C57.2044 43.5918 56.4201 44.1813 55.5007 44.5491C54.592 44.906 53.5644 45.0845 52.4178 45.0845C51.5092 45.0845 50.6709 44.9709 49.9029 44.7438C49.1348 44.5166 48.4425 44.1542 47.826 43.6567C47.2202 43.1483 46.701 42.4884 46.2683 41.6771C45.8356 40.8659 45.5057 39.8815 45.2786 38.7241C45.0514 37.5667 44.9378 36.2145 44.9378 34.6677V31.0656C44.9378 29.1293 45.1109 27.5068 45.457 26.1979C45.814 24.8891 46.317 23.8398 46.966 23.0502C47.615 22.2497 48.3939 21.6764 49.3025 21.3302C50.222 20.9841 51.2496 20.811 52.3854 20.811C53.3048 20.811 54.1485 20.9246 54.9166 21.1518C55.6954 21.3681 56.3877 21.7197 56.9934 22.2064C57.5992 22.6824 58.113 23.3206 58.5349 24.121C58.9675 24.9107 59.2975 25.8788 59.5246 27.0254C59.7518 28.172 59.8654 29.5188 59.8654 31.0656ZM56.8474 35.1544V30.5626C56.8474 29.5025 56.7825 28.5723 56.6527 27.7718C56.5337 26.9605 56.3552 26.2682 56.1173 25.6949C55.8793 25.1216 55.5764 24.6565 55.2086 24.2995C54.8517 23.9426 54.4352 23.683 53.9592 23.5207C53.4941 23.3476 52.9695 23.2611 52.3854 23.2611C51.6714 23.2611 51.0386 23.3963 50.487 23.6667C49.9353 23.9263 49.4702 24.3428 49.0916 24.9161C48.7238 25.4894 48.4425 26.2412 48.2478 27.1715C48.0531 28.1017 47.9558 29.2321 47.9558 30.5626V35.1544C47.9558 36.2145 48.0153 37.1502 48.1343 37.9615C48.2641 38.7728 48.4534 39.4759 48.7022 40.0708C48.951 40.6549 49.2538 41.1363 49.6108 41.5149C49.9678 41.8935 50.3788 42.1747 50.8439 42.3586C51.3199 42.5317 51.8445 42.6182 52.4178 42.6182C53.1534 42.6182 53.797 42.4776 54.3487 42.1964C54.9003 41.9151 55.3601 41.477 55.7278 40.8821C56.1064 40.2763 56.3877 39.5029 56.5716 38.5618C56.7555 37.6099 56.8474 36.4741 56.8474 35.1544ZM79.2063 42.2937V44.76H63.7433V42.602L71.4829 33.9862C72.4348 32.9261 73.1703 32.0283 73.6896 31.2928C74.2196 30.5464 74.5874 29.8811 74.7929 29.297C75.0092 28.7021 75.1174 28.0963 75.1174 27.4797C75.1174 26.7009 74.9552 25.9978 74.6306 25.3704C74.317 24.7322 73.8518 24.2238 73.2352 23.8452C72.6187 23.4666 71.8723 23.2773 70.9961 23.2773C69.9469 23.2773 69.0707 23.4828 68.3676 23.8939C67.6753 24.2941 67.1561 24.8566 66.8099 25.5814C66.4638 26.3061 66.2907 27.139 66.2907 28.0801H63.289C63.289 26.7496 63.581 25.5327 64.1651 24.4293C64.7493 23.326 65.6146 22.4498 66.7612 21.8008C67.9078 21.141 69.3195 20.811 70.9961 20.811C72.4889 20.811 73.7653 21.076 74.8254 21.6061C75.8854 22.1253 76.6967 22.8609 77.2592 23.8128C77.8325 24.7538 78.1191 25.8572 78.1191 27.1228C78.1191 27.8151 78.0002 28.5182 77.7622 29.2321C77.535 29.9352 77.2159 30.6383 76.8049 31.3414C76.4046 32.0445 75.9341 32.7368 75.3932 33.4183C74.8632 34.0998 74.2953 34.7704 73.6896 35.4303L67.3616 42.2937H79.2063ZM97.2491 31.0656V34.6677C97.2491 36.6039 97.076 38.2373 96.7299 39.5678C96.3837 40.8983 95.8862 41.9692 95.2371 42.7805C94.5881 43.5918 93.8039 44.1813 92.8844 44.5491C91.9758 44.906 90.9482 45.0845 89.8016 45.0845C88.8929 45.0845 88.0546 44.9709 87.2866 44.7438C86.5186 44.5166 85.8263 44.1542 85.2097 43.6567C84.604 43.1483 84.0848 42.4884 83.6521 41.6771C83.2194 40.8659 82.8895 39.8815 82.6623 38.7241C82.4352 37.5667 82.3216 36.2145 82.3216 34.6677V31.0656C82.3216 29.1293 82.4946 27.5068 82.8408 26.1979C83.1978 24.8891 83.7007 23.8398 84.3498 23.0502C84.9988 22.2497 85.7776 21.6764 86.6863 21.3302C87.6057 20.9841 88.6333 20.811 89.7691 20.811C90.6886 20.811 91.5323 20.9246 92.3003 21.1518C93.0791 21.3681 93.7714 21.7197 94.3772 22.2064C94.9829 22.6824 95.4967 23.3206 95.9186 24.121C96.3513 24.9107 96.6812 25.8788 96.9084 27.0254C97.1355 28.172 97.2491 29.5188 97.2491 31.0656ZM94.2312 35.1544V30.5626C94.2312 29.5025 94.1663 28.5723 94.0364 27.7718C93.9175 26.9605 93.739 26.2682 93.501 25.6949C93.263 25.1216 92.9601 24.6565 92.5924 24.2995C92.2354 23.9426 91.8189 23.683 91.343 23.5207C90.8779 23.3476 90.3532 23.2611 89.7691 23.2611C89.0552 23.2611 88.4224 23.3963 87.8707 23.6667C87.3191 23.9263 86.8539 24.3428 86.4753 24.9161C86.1075 25.4894 85.8263 26.2412 85.6316 27.1715C85.4369 28.1017 85.3395 29.2321 85.3395 30.5626V35.1544C85.3395 36.2145 85.399 37.1502 85.518 37.9615C85.6478 38.7728 85.8371 39.4759 86.0859 40.0708C86.3347 40.6549 86.6376 41.1363 86.9945 41.5149C87.3515 41.8935 87.7626 42.1747 88.2277 42.3586C88.7036 42.5317 89.2283 42.6182 89.8016 42.6182C90.5371 42.6182 91.1807 42.4776 91.7324 42.1964C92.2841 41.9151 92.7438 41.477 93.1116 40.8821C93.4902 40.2763 93.7714 39.5029 93.9553 38.5618C94.1392 37.6099 94.2312 36.4741 94.2312 35.1544Z" fill="white"/>
</svg>
