<svg width="110" height="64" viewBox="0 0 110 64" fill="none" xmlns="http://www.w3.org/2000/svg">
<path d="M93.62 9.88C103.5 15.59 109.62 23.46 109.7 32.15C109.79 49.52 85.47 63.65 55.48 63.66C40.48 63.66 26.86 60.12 16.98 54.42C7.09999 48.72 0.980029 40.84 0.900029 32.15C0.810029 14.78 25.13 0.639999 55.12 0.639999C70.12 0.639999 83.74 4.18001 93.62 9.88Z" fill="#32D9AF"/>
<path d="M36.2584 36.9836V39.11H22.9267V37.2494L29.5995 29.8211C30.4202 28.9072 31.0544 28.1331 31.5021 27.4989C31.9591 26.8554 32.2761 26.2819 32.4533 25.7782C32.6399 25.2653 32.7331 24.743 32.7331 24.2114C32.7331 23.54 32.5932 22.9338 32.3135 22.3928C32.043 21.8426 31.642 21.4043 31.1104 21.0778C30.5788 20.7514 29.9353 20.5882 29.1799 20.5882C28.2752 20.5882 27.5198 20.7654 26.9136 21.1198C26.3167 21.4649 25.8691 21.9498 25.5706 22.5747C25.2722 23.1996 25.123 23.9177 25.123 24.729H22.535C22.535 23.5819 22.7868 22.5327 23.2904 21.5815C23.794 20.6302 24.5401 19.8748 25.5287 19.3152C26.5172 18.7463 27.7343 18.4619 29.1799 18.4619C30.4669 18.4619 31.5674 18.6903 32.4813 19.1473C33.3953 19.595 34.0948 20.2292 34.5797 21.0499C35.074 21.8612 35.3211 22.8125 35.3211 23.9037C35.3211 24.5006 35.2186 25.1068 35.0134 25.7223C34.8175 26.3285 34.5424 26.9347 34.188 27.5409C33.8429 28.1471 33.4373 28.744 32.9709 29.3315C32.514 29.9191 32.0243 30.4973 31.5021 31.0662L26.0463 36.9836H36.2584ZM51.8145 27.3031V30.4087C51.8145 32.0781 51.6653 33.4863 51.3668 34.6334C51.0684 35.7806 50.6394 36.7038 50.0798 37.4033C49.5202 38.1028 48.8441 38.6111 48.0514 38.9281C47.268 39.2359 46.382 39.3898 45.3934 39.3898C44.61 39.3898 43.8872 39.2919 43.2251 39.096C42.5629 38.9002 41.966 38.5877 41.4344 38.1587C40.9122 37.7204 40.4645 37.1515 40.0915 36.452C39.7184 35.7526 39.434 34.9039 39.2381 33.906C39.0423 32.9081 38.9444 31.7423 38.9444 30.4087V27.3031C38.9444 25.6337 39.0936 24.2348 39.392 23.1063C39.6998 21.9778 40.1334 21.0732 40.693 20.3924C41.2526 19.7022 41.9241 19.208 42.7075 18.9095C43.5002 18.6111 44.3862 18.4619 45.3654 18.4619C46.1582 18.4619 46.8856 18.5598 47.5478 18.7556C48.2192 18.9422 48.8161 19.2453 49.3384 19.6649C49.8606 20.0753 50.3036 20.6255 50.6674 21.3157C51.0404 21.9965 51.3249 22.8312 51.5207 23.8197C51.7166 24.8083 51.8145 25.9694 51.8145 27.3031ZM49.2125 30.8284V26.8694C49.2125 25.9554 49.1565 25.1534 49.0446 24.4632C48.942 23.7638 48.7881 23.1669 48.583 22.6726C48.3778 22.1783 48.1167 21.7773 47.7996 21.4695C47.4918 21.1618 47.1327 20.938 46.7224 20.7981C46.3214 20.6488 45.869 20.5742 45.3654 20.5742C44.7499 20.5742 44.2043 20.6908 43.7287 20.924C43.2531 21.1478 42.852 21.5069 42.5256 22.0011C42.2085 22.4954 41.966 23.1436 41.7982 23.9456C41.6303 24.7477 41.5464 25.7223 41.5464 26.8694V30.8284C41.5464 31.7423 41.5977 32.549 41.7002 33.2485C41.8122 33.948 41.9754 34.5542 42.1899 35.0671C42.4044 35.5707 42.6655 35.9857 42.9733 36.3121C43.281 36.6386 43.6354 36.881 44.0365 37.0396C44.4468 37.1888 44.8991 37.2634 45.3934 37.2634C46.0276 37.2634 46.5825 37.1422 47.0581 36.8997C47.5338 36.6572 47.9301 36.2795 48.2472 35.7666C48.5736 35.2443 48.8161 34.5775 48.9747 33.7661C49.1332 32.9454 49.2125 31.9662 49.2125 30.8284ZM68.4897 36.9836V39.11H55.1579V37.2494L61.8308 29.8211C62.6515 28.9072 63.2857 28.1331 63.7333 27.4989C64.1903 26.8554 64.5074 26.2819 64.6846 25.7782C64.8711 25.2653 64.9644 24.743 64.9644 24.2114C64.9644 23.54 64.8245 22.9338 64.5447 22.3928C64.2742 21.8426 63.8732 21.4043 63.3416 21.0778C62.81 20.7514 62.1665 20.5882 61.4111 20.5882C60.5065 20.5882 59.7511 20.7654 59.1448 21.1198C58.548 21.4649 58.1003 21.9498 57.8019 22.5747C57.5034 23.1996 57.3542 23.9177 57.3542 24.729H54.7662C54.7662 23.5819 55.018 22.5327 55.5216 21.5815C56.0252 20.6302 56.7713 19.8748 57.7599 19.3152C58.7485 18.7463 59.9656 18.4619 61.4111 18.4619C62.6981 18.4619 63.7986 18.6903 64.7126 19.1473C65.6265 19.595 66.326 20.2292 66.811 21.0499C67.3052 21.8612 67.5524 22.8125 67.5524 23.9037C67.5524 24.5006 67.4498 25.1068 67.2446 25.7223C67.0488 26.3285 66.7737 26.9347 66.4193 27.5409C66.0742 28.1471 65.6685 28.744 65.2022 29.3315C64.7452 29.9191 64.2556 30.4973 63.7333 31.0662L58.2775 36.9836H68.4897ZM84.6053 36.9836V39.11H71.2735V37.2494L77.9464 29.8211C78.7671 28.9072 79.4013 28.1331 79.849 27.4989C80.3059 26.8554 80.623 26.2819 80.8002 25.7782C80.9867 25.2653 81.08 24.743 81.08 24.2114C81.08 23.54 80.9401 22.9338 80.6603 22.3928C80.3899 21.8426 79.9888 21.4043 79.4573 21.0778C78.9257 20.7514 78.2822 20.5882 77.5267 20.5882C76.6221 20.5882 75.8667 20.7654 75.2605 21.1198C74.6636 21.4649 74.2159 21.9498 73.9175 22.5747C73.6191 23.1996 73.4699 23.9177 73.4699 24.729H70.8818C70.8818 23.5819 71.1336 22.5327 71.6373 21.5815C72.1409 20.6302 72.887 19.8748 73.8755 19.3152C74.8641 18.7463 76.0812 18.4619 77.5267 18.4619C78.8137 18.4619 79.9142 18.6903 80.8282 19.1473C81.7422 19.595 82.4416 20.2292 82.9266 21.0499C83.4209 21.8612 83.668 22.8125 83.668 23.9037C83.668 24.5006 83.5654 25.1068 83.3603 25.7223C83.1644 26.3285 82.8893 26.9347 82.5349 27.5409C82.1898 28.1471 81.7841 28.744 81.3178 29.3315C80.8608 29.9191 80.3712 30.4973 79.849 31.0662L74.3931 36.9836H84.6053Z" fill="white"/>
</svg>
