<svg width="225" height="122" viewBox="0 0 225 122" fill="none" xmlns="http://www.w3.org/2000/svg">
<path d="M224.74 2.84C224.56 5.14 224.48 7.46 224.48 9.84C224.48 12.22 224.56 14.51 224.74 16.84C222.988 45.2695 210.459 71.9606 189.708 91.4713C168.956 110.982 141.543 121.843 113.06 121.84C98.3532 121.839 83.7908 118.939 70.2054 113.306C56.62 107.674 44.2779 99.4187 33.8846 89.0134C23.4914 78.6081 15.2508 66.2564 9.63397 52.6645C4.01715 39.0725 1.13423 24.5068 1.14999 9.79999C1.14999 8.01999 1.15001 6.23 0.980011 4.45H20.52C20.61 6.23 20.66 8.01999 20.66 9.79999C20.6751 33.6895 29.9421 56.6447 46.5167 73.849C63.0913 91.0534 85.6851 101.17 109.557 102.075C133.43 102.981 156.725 94.6053 174.555 78.7061C192.386 62.8068 203.365 40.6197 205.19 16.8C205.37 14.51 205.46 12.18 205.46 9.79999C205.46 7.41999 205.37 5.14 205.19 2.8C205.25 1.94 205.31 1.08 205.39 0.220001H225C224.89 1.12 224.8 2 224.74 2.84Z" fill="#37CCAF"/>
</svg>
