<svg width="225" height="122" viewBox="0 0 225 122" fill="none" xmlns="http://www.w3.org/2000/svg">
<path d="M205.13 15C205.135 14.9635 205.135 14.9265 205.13 14.89C205.23 13.12 205.28 11.33 205.28 9.53999C205.28 8.61999 205.28 7.7 205.28 6.78V0H224.82L224.53 15.43L224.47 18.26V18.33C223.479 31.2802 220.212 43.9542 214.82 55.77C204.255 79.0549 186.034 98.0196 163.19 109.508C140.347 120.996 114.258 124.315 89.2653 118.913C64.2728 113.51 41.8839 99.7123 25.8248 79.8146C9.76562 59.9169 1.00472 35.1198 1 9.55C1 7.77 1.00003 5.98 0.840027 4.2H20.38C20.46 5.98 20.51 7.77 20.51 9.55C20.491 33.4623 29.7428 56.4509 46.321 73.6835C62.8991 90.9162 85.5124 101.051 109.408 101.957C133.303 102.864 156.619 94.4711 174.455 78.5439C192.291 62.6166 203.257 40.395 205.05 16.55L205.13 15Z" fill="#37CCAF"/>
</svg>
