<svg width="224" height="104" viewBox="0 0 224 104" fill="none" xmlns="http://www.w3.org/2000/svg">
<path d="M223.4 103.26H203.81C201.436 80.5345 190.729 59.4938 173.753 44.1993C156.778 28.9047 134.739 20.4405 111.89 20.4405C89.0409 20.4405 67.0018 28.9047 50.0266 44.1993C33.0513 59.4938 22.3435 80.5345 19.97 103.26H0.390015C1.45854 90.5714 4.7096 78.1625 10 66.58C18.9034 46.9509 33.2858 30.3105 51.4188 18.6587C69.5518 7.00689 90.6639 0.839413 112.218 0.897501C133.772 0.955589 154.85 7.23676 172.92 18.9861C190.99 30.7355 205.283 47.4532 214.08 67.13C219.216 78.5567 222.368 90.7748 223.4 103.26Z" fill="#008489"/>
</svg>
