<svg width="224" height="225" viewBox="0 0 224 225" fill="none" xmlns="http://www.w3.org/2000/svg">
<path d="M223.59 119.76C222.77 133.329 219.458 146.631 213.82 159C204.851 178.773 190.323 195.51 172.007 207.17C153.691 218.831 132.379 224.91 110.668 224.669C88.9566 224.427 67.7847 217.874 49.7331 205.809C31.6814 193.744 17.5297 176.687 9.00316 156.719C0.476571 136.751 -2.05659 114.734 1.71247 93.3509C5.48154 71.9681 15.39 52.1436 30.23 36.2942C45.07 20.4448 64.2005 9.25507 85.2895 4.08907C106.378 -1.07693 128.515 0.0039649 149 7.2L137.7 24.07C119.367 18.7417 99.8329 19.2233 81.7843 25.4485C63.7358 31.6737 48.0587 43.3369 36.9084 58.8344C25.7582 74.332 19.6823 92.9031 19.5161 111.994C19.3499 131.086 25.1016 149.76 35.9804 165.449C46.8591 181.138 62.3308 193.073 80.2682 199.611C98.2057 206.149 117.728 206.971 136.151 201.963C154.575 196.954 170.994 186.362 183.153 171.642C195.311 156.922 202.612 138.798 204.05 119.76C204.23 117.47 204.31 115.14 204.31 112.76H223.31C223.33 115.14 223.41 117.47 223.59 119.76Z" fill="#37CCAF"/>
</svg>
