<svg width="224" height="197" viewBox="0 0 224 197" fill="none" xmlns="http://www.w3.org/2000/svg">
<path d="M223.59 112C223.598 128.117 220.116 144.044 213.384 158.688C206.652 173.331 196.829 186.343 184.59 196.83H148.31C163.347 190.337 176.387 179.963 186.096 166.772C195.804 153.581 201.832 138.046 203.562 121.758C205.291 105.471 202.66 89.0169 195.938 74.0809C189.217 59.1449 178.645 46.2641 165.308 36.7577C151.97 27.2514 136.345 21.4611 120.033 19.9801C103.722 18.499 87.3093 21.3804 72.4775 28.3291C57.6458 35.2778 44.9276 46.0441 35.6256 59.5252C26.3236 73.0062 20.7723 88.7176 19.54 105.05C19.36 107.34 19.8 109.67 19.8 112H0.26001C0.26001 109.67 0.18 107.34 0 105.05C0.816566 91.471 4.12856 78.1587 9.77002 65.78C20.328 42.4855 38.5471 23.5107 61.3934 12.0151C84.2397 0.519507 110.335 -2.8031 135.333 2.60056C160.331 8.00422 182.723 21.808 198.782 41.7134C214.841 61.6189 223.596 86.4246 223.59 112Z" fill="#008489"/>
</svg>
