<svg width="224" height="113" viewBox="0 0 224 113" fill="none" xmlns="http://www.w3.org/2000/svg">
<path d="M223.52 107.45H204C202.657 84.0382 192.462 62.0131 175.482 45.8389C158.502 29.6648 136.008 20.5517 112.559 20.347C89.1091 20.1422 66.4591 28.8611 49.1995 44.7363C31.9399 60.6115 21.3621 82.4552 19.61 105.84C19.43 108.14 19.35 110.46 19.35 112.84H0.350037C0.350037 110.5 0.270027 108.18 0.0900269 105.84C0.905314 92.264 4.21738 78.9547 9.86003 66.58C18.7634 46.9509 33.1458 30.3105 51.2789 18.6587C69.4119 7.00689 90.5239 0.839413 112.078 0.897501C133.632 0.955589 154.71 7.23676 172.78 18.9861C190.85 30.7355 205.143 47.4532 213.94 67.13C219.644 79.8466 222.895 93.5266 223.52 107.45V107.45Z" fill="#008489"/>
</svg>
