<svg xmlns="http://www.w3.org/2000/svg" viewBox="0 0 795.58 215.79"><defs><style>.cls-1{fill:#f3ba2f;}</style></defs><title>bin</title><g id="Capa_2" data-name="Capa 2"><g id="katman_1" data-name="katman 1"><path id="Shape" class="cls-1" d="M222,26h36.59c9.3,0,16.12,2.48,20.46,6.82a17.62,17.62,0,0,1,6.2,13.65h0a21.09,21.09,0,0,1-.62,6.2A26,26,0,0,1,279,61.39a13,13,0,0,1-3.72,2.48,26,26,0,0,1,11.16,6.82c2.48,3.1,3.72,6.82,3.72,12.4h0a22.65,22.65,0,0,1-1.86,9.3,21.45,21.45,0,0,1-6.2,6.82,61.66,61.66,0,0,1-9.3,4.35c-3.72,1.24-8.06,1.24-12.4,1.24H222.61V26Zm33.49,32.25a24.88,24.88,0,0,0,9.3-1.86,6.82,6.82,0,0,0,3.72-6.2h0a7.63,7.63,0,0,0-3.1-6.2,10.76,10.76,0,0,0-8.68-1.86H239.36V58.91h16.12Zm4.34,31.62a24.88,24.88,0,0,0,9.3-1.86,5.88,5.88,0,0,0,3.1-6.82h0a7.63,7.63,0,0,0-3.1-6.2,19.21,19.21,0,0,0-9.92-2.48H238.74V89.91Z"/><polygon id="Path" class="cls-1" points="311.91 26.04 329.27 26.04 329.27 105.42 311.91 105.42 311.91 26.04"/><polygon id="Path-2" data-name="Path" class="cls-1" points="355.93 26.04 372.06 26.04 409.26 75.03 409.26 26.04 426.62 26.04 426.62 105.42 411.74 105.42 372.68 55.19 372.68 105.42 355.93 105.42 355.93 26.04"/><path id="Shape-2" data-name="Shape" class="cls-1" d="M479.33,25.42h16.12l34.11,80h-18l-7.44-18H470.65l-7.44,18h-18Zm18.61,47.13-10.55-26-10.54,26Z"/><polygon id="Path-3" data-name="Path" class="cls-1" points="548.16 26.04 564.28 26.04 601.49 75.03 601.49 26.04 618.85 26.04 618.85 105.42 603.97 105.42 565.52 55.19 565.52 105.42 548.16 105.42 548.16 26.04"/><path id="Path-4" data-name="Path" class="cls-1" d="M682.1,106.66a46.57,46.57,0,0,1-16.12-3.1,41.31,41.31,0,0,1-21.7-21.71,46.57,46.57,0,0,1-3.1-16.12h0A43.53,43.53,0,0,1,653,36.59a36.82,36.82,0,0,1,13-8.69,40.06,40.06,0,0,1,16.74-3.1,53.33,53.33,0,0,1,9.92.62,30.65,30.65,0,0,1,8.07,2.48,67.63,67.63,0,0,1,6.82,3.72,43.54,43.54,0,0,1,6.2,5l-10.54,13a87.78,87.78,0,0,0-9.31-6.82,20.38,20.38,0,0,0-10.54-2.48,24.88,24.88,0,0,0-9.3,1.86,16.93,16.93,0,0,0-7.44,5.58,35.15,35.15,0,0,0-5,8.06,24.88,24.88,0,0,0-1.86,9.3h0A28.08,28.08,0,0,0,661.64,75a21.88,21.88,0,0,0,5,8.06,22.14,22.14,0,0,0,16.74,7.44,26.94,26.94,0,0,0,11.79-2.48,51.32,51.32,0,0,0,9.3-6.82l11.16,11.16-6.2,6.2a45.59,45.59,0,0,1-7.44,4.35,35.78,35.78,0,0,1-8.69,3.1,75.23,75.23,0,0,1-11.16.62Z"/><polygon id="Path-5" data-name="Path" class="cls-1" points="735.43 26.04 794.96 26.04 794.96 41.55 752.17 41.55 752.17 57.67 790 57.67 790 73.17 752.17 73.17 752.17 89.91 795.58 89.91 795.58 105.42 735.43 105.42 735.43 26.04"/><path id="Path-6" data-name="Path" class="cls-1" d="M244.32,183.55a27.76,27.76,0,0,1-12.4-2.48c-3.73-1.24-7.45-3.72-11.17-6.82l6.2-6.82c2.48,2.48,5,3.72,8.07,5.58a24.88,24.88,0,0,0,9.3,1.86,16.51,16.51,0,0,0,7.44-1.86,5.64,5.64,0,0,0,2.48-5h0a3.73,3.73,0,0,0-.62-2.48c-.62-.63-1.24-1.87-1.86-2.49L248,161.22c-1.86-.62-4.34-1.24-6.2-1.86a40.1,40.1,0,0,1-8.06-2.48,16.3,16.3,0,0,1-5.59-3.1,27,27,0,0,1-3.72-4.34,14.54,14.54,0,0,1-1.24-6.82h0a26.37,26.37,0,0,1,1.24-6.82c.62-1.86,2.48-3.72,3.72-5a19.45,19.45,0,0,1,6.21-3.1,31.12,31.12,0,0,1,7.44-1.24A35.11,35.11,0,0,1,253,128.36a67.76,67.76,0,0,1,9.3,5l-5,7.44a46.24,46.24,0,0,0-7.44-4.34c-2.48-1.24-5-1.24-7.44-1.24a12.5,12.5,0,0,0-6.82,1.86,7.65,7.65,0,0,0-2.48,5h0a5.59,5.59,0,0,0,.62,3.1c.62.62,1.24,1.86,1.86,2.48a30.23,30.23,0,0,0,4.34,1.86,50.3,50.3,0,0,0,6.82,1.86,57.58,57.58,0,0,1,8.06,2.48,25.13,25.13,0,0,1,5.58,3.1,18.84,18.84,0,0,1,3.1,4.34,18.35,18.35,0,0,1,1.24,6.21h0a22.29,22.29,0,0,1-1.24,6.82,34.07,34.07,0,0,1-4.34,5.58,19.39,19.39,0,0,1-6.2,3.1C249.9,182.93,246.8,183.55,244.32,183.55Z"/><polygon id="Path-7" data-name="Path" class="cls-1" points="275.32 127.12 285.86 127.12 302.61 153.16 319.97 127.12 330.51 127.12 330.51 182.93 320.59 182.93 320.59 142.62 303.23 168.66 302.61 168.66 285.24 142.62 285.24 182.93 275.32 182.93 275.32 127.12"/><path id="Shape-3" data-name="Shape" class="cls-1" d="M364,126.5h9.3l24.18,55.81H386.94l-5.58-13.64H355.31l-5.58,13.64h-9.92Zm14.26,34.1-9.92-22.32L359,160.6Z"/><path id="Shape-4" data-name="Shape" class="cls-1" d="M407.4,127.12h24.81a47.86,47.86,0,0,1,9.3,1.24,16.05,16.05,0,0,1,6.82,4.34,21.64,21.64,0,0,1,3.72,5.58,22.29,22.29,0,0,1,1.24,6.82h0a22,22,0,0,1-1.24,6.2c-.62,1.86-1.86,3.1-2.48,5a27,27,0,0,1-4.34,3.72,22,22,0,0,1-5.58,2.48l14.88,21.09H442.75L429.1,164.32H416.7v19.23h-9.92Zm24.19,27.28c3.1,0,6.2-.62,8.06-2.48a10,10,0,0,0,3.1-6.82h0a10,10,0,0,0-3.1-6.82A14.23,14.23,0,0,0,431,135.8H416.7v18.6Z"/><polygon id="Path-8" data-name="Path" class="cls-1" points="478.71 135.8 460.73 135.8 460.73 127.12 506 127.12 506 135.8 488.01 135.8 488.01 182.93 478.09 182.93 478.71 135.8"/><path id="Path-9" data-name="Path" class="cls-1" d="M566.15,183.55A24.36,24.36,0,0,1,555,181.07c-6.82-3.1-12.4-8.06-14.88-14.88-1.24-3.73-2.48-7.45-1.86-11.17h0a35.11,35.11,0,0,1,1.86-11.16A28,28,0,0,1,555,128.36c3.72-1.24,7.44-2.48,11.79-2.48a23.25,23.25,0,0,1,6.82.62l5.58,1.86c1.86.62,3.1,1.86,5,2.48,1.24,1.24,3.1,2.48,4.34,3.72l-6.2,7.44a27.53,27.53,0,0,0-6.82-5,19.8,19.8,0,0,0-8.68-1.86,31.2,31.2,0,0,0-7.45,1.24,22.27,22.27,0,0,0-6.2,4.34,12.86,12.86,0,0,0-3.72,6.2,31.12,31.12,0,0,0-1.24,7.44h0a31.12,31.12,0,0,0,1.24,7.44,12.89,12.89,0,0,0,3.72,6.21,22.27,22.27,0,0,0,6.2,4.34,10.7,10.7,0,0,0,7.45,1.24,19.8,19.8,0,0,0,8.68-1.86,29.15,29.15,0,0,0,7.44-5.58l6.2,6.2-4.34,4.34c-1.86,1.24-3.1,2.48-5,3.1s-3.72,1.86-6.2,1.86c-2.48,1.86-5,1.86-7.44,1.86Z"/><polygon id="Path-10" data-name="Path" class="cls-1" points="599.01 127.12 608.31 127.12 608.31 150.06 634.98 150.06 634.98 127.12 644.9 127.12 644.9 182.93 634.98 182.93 634.98 159.36 608.31 159.36 608.31 182.93 599.01 182.93 599.01 127.12"/><path id="Shape-5" data-name="Shape" class="cls-1" d="M679,126.5h9.3l24.19,55.81H702l-5.58-13.64h-26l-5.58,13.64h-9.92Zm13.64,34.1-9.3-22.32L674,160.6Z"/><polygon id="Path-11" data-name="Path" class="cls-1" points="722.41 127.12 732.33 127.12 732.33 182.93 722.41 182.93 722.41 127.12"/><polygon id="Path-12" data-name="Path" class="cls-1" points="747.21 127.12 755.89 127.12 785.66 165.56 785.66 127.12 795.58 127.12 795.58 182.93 787.52 182.93 757.13 143.24 757.13 182.93 747.21 182.93 747.21 127.12"/><path id="binancedex" class="cls-1" d="M112.86,179.21v24.18l-21.09,12.4-20.46-12.4V179.21l20.46,12.4ZM0,95.49,20.46,107.9v41.54l35.35,21.09v24.18L0,161.84Zm183.55,0v66.35l-56.43,32.87V170.53l35.34-21.09V107.9ZM127.12,62.63,148.2,75h0V99.21L112.86,120.3v42.16L92.39,174.87,71.93,162.46V120.3L35.35,99.21V75l21.08-12.4L91.77,83.71Zm-91.77,54L55.81,129v24.18l-20.46-12.4Zm112.85,0v24.18l-20.46,12.4V129Zm-127.74-75L41.55,54,20.46,66.35V90.53L0,78.13V54Zm142.62,0L184.17,54V78.13l-21.09,12.4V66.35L142.62,54Zm-71.31,0L112.86,54,91.77,66.35,71.31,54ZM91.77,0,148.2,32.86,127.74,45.27,92.39,24.18l-36,21.09L36,32.86Z"/></g></g></svg>