<svg xmlns="http://www.w3.org/2000/svg" viewBox="0 0 477.98 129.62"><defs><style>.cls-1{fill:#4231c8;}</style></defs><title>pro</title><g id="Capa_2" data-name="Capa 2"><g id="katman_1" data-name="katman 1"><g id="Layer_2" data-name="Layer 2"><g id="Layer_1-2" data-name="Layer 1-2"><path class="cls-1" d="M70.26,37.63,59.75,31.5a7,7,0,0,0-6.35,0L42.89,37.63c-2.28,1.33-2.28,3.5,0,4.83l10.56,6.21a6.87,6.87,0,0,0,6.33,0l10.56-6.21C72.56,41.11,72.55,39,70.26,37.63Z"/><path class="cls-1" d="M111.37,30,60.45.76a7,7,0,0,0-6.34,0L3.18,30A7,7,0,0,0,0,35.53V94.09a7,7,0,0,0,3.18,5.49l50.93,29.29a7.07,7.07,0,0,0,6.34,0l50.92-29.29a7,7,0,0,0,3.18-5.49V35.53A7,7,0,0,0,111.37,30ZM88.72,43.63l-29,17.07a6.89,6.89,0,0,1-6.34,0L35,49.87c-2.28-1.34-4.15-.28-4.15,2.39V84.89c0,2.6-1.89,3.74-4.19,2.52l-3.12-1.65a6.75,6.75,0,0,1-3.26-5.41V44.87a7.09,7.09,0,0,1,3.16-5.5L53.39,22a7,7,0,0,1,6.35,0l29,16.84C91,40.12,91,42.3,88.72,43.63Z"/><path class="cls-1" d="M174.69,106.21a.82.82,0,0,1,.7-.9.67.67,0,0,1,.2,0h1.74a.89.89,0,0,1,.95.83v9.15a1,1,0,0,1-.57.86l-.08.08A15.66,15.66,0,1,1,168.31,88,15.39,15.39,0,0,1,173.92,89c1.39.53,4.17,1.81,4.17,2.83a.89.89,0,0,1-.12.45l-.9,1.48a.9.9,0,0,1-.7.47,1.26,1.26,0,0,1-.78-.32,12.65,12.65,0,0,0-7.24-2.39,12,12,0,1,0-.52,24.06h.48a11.46,11.46,0,0,0,6.38-1.84Z"/><path class="cls-1" d="M206.28,115.26a.87.87,0,0,1,.91.83.62.62,0,0,1,0,.13v1.63a.88.88,0,0,1-.86.9H188.89a.78.78,0,0,1-.9-.65.53.53,0,0,1,0-.25V89.27a.86.86,0,0,1,.83-.9.48.48,0,0,1,.12,0h1.68a.83.83,0,0,1,.9.77.29.29,0,0,1,0,.13v26Z"/><path class="cls-1" d="M243.57,103.64a15.63,15.63,0,1,1,0-.12Zm-15.64,12a12.08,12.08,0,1,0-12.07-12.12,12.06,12.06,0,0,0,12.07,12.12Z"/><path class="cls-1" d="M271.26,102.49a8.7,8.7,0,0,1-4,16.25H253.75a.89.89,0,0,1-1-.79V89.35a.86.86,0,0,1,.72-1,1,1,0,0,1,.24,0h12.07a7.9,7.9,0,0,1,8.23,7.94A8.27,8.27,0,0,1,271.26,102.49Zm-5.48-10.64h-9.45v9.41h9.45a4.76,4.76,0,0,0,4.67-5c0-2.75-1.92-4.46-4.67-4.46Zm-9.45,12.9v10.52h10.86a5.27,5.27,0,0,0,0-10.52Z"/><path class="cls-1" d="M286.08,117.92a1.15,1.15,0,0,1-1.15.82h-1.76c-.57,0-.86-.21-.86-.66a2,2,0,0,1,.08-.53c11.83-28.4,11.87-28.4,11.87-28.44a1,1,0,0,1,1-.74h1.19a1,1,0,0,1,1,.74l11.78,28.47a2.85,2.85,0,0,1,.13.48c0,.45-.37.66-.91.66h-1.76a1.16,1.16,0,0,1-1.1-.78l-2.39-5.85H288.37Zm3.76-9.29h12l-6-15Z"/><path class="cls-1" d="M336.33,115.26a.87.87,0,0,1,.9.84v1.75a.88.88,0,0,1-.87.9H318.93a.79.79,0,0,1-.9-.64,1.13,1.13,0,0,1,0-.26V89.27a.87.87,0,0,1,.84-.9.48.48,0,0,1,.12,0h1.68a.84.84,0,0,1,.9.77v26.12Z"/><path class="cls-1" d="M152,12.93a1.49,1.49,0,0,1,1.31-1.66h24.56c10.36,0,17.47,9.16,17.47,18.39s-6.88,18.16-17.25,18.16H166.54V65.74c0,1.13-.61,1.66-1.74,1.66H153.6c-1.13,0-1.59-.53-1.59-1.66Zm14.52,10.29V35.85h8.17c3.71,0,5.83-3.1,5.83-6.28,0-3-2.2-6.35-5.83-6.35Z"/><path class="cls-1" d="M208.75,12.93a1.56,1.56,0,0,1,1.46-1.66h25.24c10.67,0,17.93,9.38,17.93,18.84,0,6.06-3.71,11.95-9.23,15.51L255,65.73a1,1,0,0,1-.91,1.67H240.44c-1.05,0-1.43-.31-2-1.59l-9-17.1h-6.08v17a1.49,1.49,0,0,1-1.67,1.67H210.34c-1.06,0-1.59-.54-1.59-1.67Zm14.6,10V36.6h8.4a6.8,6.8,0,0,0,6.73-6.8,7,7,0,0,0-6.73-6.88Z"/><path class="cls-1" d="M294.23,10.43a28.9,28.9,0,1,1-28.9,29,28.9,28.9,0,0,1,28.9-29Zm0,43.88c8.32,0,14.3-6.58,14.3-15s-6-15-14.3-15-14.3,6.66-14.3,15S285.91,54.31,294.23,54.31Z"/><path class="cls-1" d="M338.33,13A1.58,1.58,0,0,1,340,11.26h24a16.26,16.26,0,0,1,16.19,16.25,14.74,14.74,0,0,1-3.41,9.69,18.44,18.44,0,0,1,5.9,13.24c0,9.15-7.57,16.94-16.49,16.94H340a1.49,1.49,0,0,1-1.66-1.59ZM360,22.38h-7v11h6.8c3.48,0,5.83-2.27,5.83-5.45a5.49,5.49,0,0,0-5.44-5.55Zm1.88,21.18H353V56.2h8.84c3.35,0,5.83-3.1,5.83-6.36,0-3-2.51-6.28-5.83-6.28Z"/><path class="cls-1" d="M400.21,12.93c0-1.14.53-1.67,1.59-1.67h11.35a1.48,1.48,0,0,1,1.66,1.67v52.8a1.49,1.49,0,0,1-1.66,1.67H401.8c-1.06,0-1.59-.54-1.59-1.67Z"/><path class="cls-1" d="M433.64,12.93a1.45,1.45,0,0,1,1.66-1.67h41A1.48,1.48,0,0,1,478,12.93v9.61a1.51,1.51,0,0,1-1.35,1.66,1.61,1.61,0,0,1-.31,0H462.93V65.73c0,1.13-.61,1.67-1.74,1.67H450.28a1.49,1.49,0,0,1-1.66-1.67V24.2H435.3a1.48,1.48,0,0,1-1.66-1.66Z"/></g></g></g></g></svg>